<mxfile host="app.diagrams.net" modified="2024-06-25T09:20:42.467Z" agent="Mozilla/5.0 (Macintosh; Intel Mac OS X 10_15_7) AppleWebKit/537.36 (KHTML, like Gecko) Chrome/126.0.0.0 Safari/537.36" etag="pvq9Uewp4PcnImg3SJTT" version="24.6.2" type="github">
  <diagram name="Page-1" id="sDvKZdUuklYefEXGQc0v">
    <mxGraphModel dx="954" dy="557" grid="1" gridSize="10" guides="1" tooltips="1" connect="1" arrows="1" fold="1" page="1" pageScale="1" pageWidth="850" pageHeight="1100" math="0" shadow="0">
      <root>
        <mxCell id="0" />
        <mxCell id="1" parent="0" />
        <mxCell id="X9vt5x6s8_CQE_LxR-kw-25" value="" style="shape=image;verticalLabelPosition=bottom;labelBackgroundColor=default;verticalAlign=top;aspect=fixed;imageAspect=0;image=data:image/png,iVBORw0KGgoAAAANSUhEUgAAArMAAADmCAMAAADx5f1EAAAABGdBTUEAALGPC/xhBQAAAAFzUkdCAK7OHOkAAAAJdnBBZwAABywAAAlIAJdquEgAAAMAUExURfX5+fX59/3////9/wgICv5qo////f///375j3rb33za4+Xr7AgKCvX3+vT69wE+joL5kZT9o/T3+P3//ZPq63jZ4n/5jfb6+3/3kv/8/x0kJvL39v79/fv///xno3nb4Rl2Dhl4CgE+kP1po3v4jf/9/YucoBl3EX73jYUFAMzb1ff9/PH6+RdzB4sGAPP7+wE/kokGABl2Bxp6C+3085P9oRt8EgJDkXrb3vP5+hdzDnjZ3vPz9fxrpr3T1f/7/oHi5+z59oP8jwA8jvz8/IHe5PxqoJHq5/77/Xze4336kgA6ifz+/DtKS40IAIP5lf96uPv5/HbW3gNFlYP8lZ60vf/++ufr7fH69f9rp4Db4wE/lefo6jE6P/9yq/v8+iImKPj0+fr2+4f7l/P3+oP5jzNCQwoKDIfh5x6LGf8ZJYnn6nb5hPf3+5WkpP9+t/tnnpWsqXz3knnc5fz/+GLpcn6Zntre3TpDRRofIYqemv9uphyDFI37miuOvXXa3awSInr0jgoMDP+BuSScJuPs6y/TIEuyzp2uqmd2dtrl42nvdU/XXQ8SE8bZ0ulOfxZwCszc21zhbGvwgTOawyGTIAE9irPAvV3A1/lhnIyioGrP3tHf3Xb1hiWh6Uy12dru5Hvd3+3t7zC0OhNlpT+myjrBRzSk6k1iX/5zqQxYniGBtr3MyQhPmaCzs+Ln5xhvrGTH3HPzhXTT3lXlYbkgPYynqJIIAielLtI0VkHGS54NEwI+ix15sqq/veXs6d1EdH2ZmFLA3UfPVOH283/6iTykxdf63rjExinLHYr7nVpqaG6Iifw+cUpVWsbS0IOdpUHmUX+Pi/tvpK64tz2n0vhfjhVqCnvZ4H+1XP8lTgJAi2HA46D9q/apyjCrNsHf41Ftd6bA3xoiI/8gQRsiI53V5znB4Yj2qHPtgzvfQP+LvKfArFDGU7rSzv3J4vbf6QwMDmGCcfP79xwkJKz7y3bL6MkpRHz7j/KjxPyn0nfb2Plvo+yoxAQ+ixwkIkWTpAkAACAASURBVHgB7X0JQFNX2jbkXhPFIJRUyWoRjYRNEFKCEBsiwcYSpEAbKYgJa0CFgkVBRCpUBcQVBRHFFlzqvtFa61Ydi7XWqlXrMKX97Ezbr5+dmXYYO9P5P/2Y/zk3IFTZQWRmPGhyc9ezPPc573nP+77HgvNAeuPVN8i/N14kH79Kr77x3POPJ+k5FItJmq+eIunZZ/Hv3yI99dQdimJJKNZPD1X3r+q+Dz9e/d1TXVfXU19xOGJzHQt4koFrZTeOlEU9gMAuf1o8cAb71SFjJ0+dNXXsK5PH/jpNTR/9B38rf/+RA/znf7d62bKZ5jTjf/LnjRuFJCMf/wYpf9xbH8ys+eDgsv/368ruv19DhvzuhbpRTKV1XF9D8xcv++BgcyUf/OCuf/2jb+Vh/la+AWoWMMt7AINd/XwQs5xXx44dfW/qpkVTd49+II0d/Yd6FOaZgU6v18+cMXM4k5Y9my+bEjqP/2+T6vJXACnDZyz7v3sP1Ha//bwHzA6V8flDO6u0cYtn1DB1/MEHMz+YWR8+AG1cX18/MlndHzxLvbFo9L1NmyZPnjp18r1f/V2fmv6H+mesBjzV3/UFBZCq/GDmwWf5oXWyxERb28R/j/SPF96aORPdyLL/m/yryv511ffp19TfjatLRJ11msY9NWPmQXMdz/xgxt3XB6SVo+r7B7OcV6em31vjnH5vKlD7QEr/QxReDquB/SO1N5xw0fDhM4e/dTFftrQ0ND/UdugAJP6jf4ZM9hbTJS/7v+sPVHa//bz3O37dC7ZdlEW2+OCMGea+bObBGdVRA9DIUfVWVslyFrvv8izn1dGj762ZOHXqvdGTp04eew/Cbcvn9fQ/+AKz9cMGOPnWLwNcCWSHz1zM5y8trUuMf4FfN4qfONRWNnQo/vV7spXJbGWh7yTyZfyO7y3Lrwvlj4vng8DyQxNL4mU4veOzyRFb2bzEUFkb/MhkdZBnhw9fNvy/UM/3a7ptrfd5e/TvZPx5iZ1nTMZfjOpt/vtguG/3Wrg63H9YdfdObees+mG+/slqiielejoIa0eeBWadrw+5NxWgxVAAVdn8eW/qH+p9fbtZnnYy2etd9eg8m1F7kWAWktn8Y2j9UQQFQx8F5cqGjpLZxpfJQiEHyobyR7ULRgJrfmK+TDbPti4+fmloogxI7xwbQ/mJ4/jj+K03ZHh2+ExgllBES023rfU+b0/+ncx2XqIMIu2o1uc+mE2C2WUMz0JUOejfraayGgbQjuzWqe2dRDAbpJbyeq44aB+zE4dMJcIBefNb/qPuwLP+A0+zw4bVH1w28+Dw4fjH8Ow7tvzQW36hstCqR0OyaE9gD3RYlshP5I8i78UDiTT/UJkM7HoEjIxT6xJDfVZ2zbNDh+YnzucD6/fv18qzwKu5tpn+rbnW+7I9lmm6sZPNPNtZh4HymjE7k9Tx8A+Gdw+z9f7D/KPC24Njt/b1L89OZnh2NNG3MO8++cD/e2P/4A+i7VaG+vUks2xARIPhF/mQZ/Pnyda6rw9NnMdPJNi6D4D+2wBQhw69XYY+X9ZBY+Ox/CNDQ+NfmDdvKCFaW4dt4NkucxBqe+ulKtvWLJvlWUClmWebq5qp9z5uo9EI64xt5tnETom2hWfRn838YFn3MOsfXvtaHzjMjFlx//Hs1CH3RuMPpWb6LNDt2LGQZ/19B1yaBfrrhy+D0Af5oFmeDR262MuhFETbhrC6REuPTiCYHbV+KUSDTi6LvzVXll+y0tYWZ8nmrwVmOzu7GTLxS0uqWoXLFnl2eIs829Krdet7dGs3yBAywSizQT7IQQay3ZRnobtg5K/hM9+a0S3G8Y+q2JPn2xee9fcN6id5duqQqWuch1zfdI8QLVPw0Uzhx96Drgv9wbCo8PAgiDLP1D/jG/V6c/Eg5z5TW18dNGwYTvCPen3k60EPots/vL6+elitlf+wafXkLHOqHun/4Ikth+5/1y87yJAsRK5QWf7S9bcTEx0cSkITIWaWvkQkzhbeys+HiCnjj8uf96sOGH2fDHInhkgldXV80rHLOobiuFByLfh1fUrKyrq6eR3j8CXvY3V1K2/JQkfJ+KGl7ttC+dhovXF8vizfls+fN06G3mCobT6kb6SLY47L2jzezLPLwLPpkyePXpQOtLVwLEB3fxuCw+ib10ePZgSI9Kmj02eNTk9Pn/rKok3YTh899RWC1dH3hsxKv8mgFZcSxKIFsUHkWRnfdt5c2bjEdoaJiRgZjpIReRZ/gO2MmStGQg9fb+VfHY72CvC1umvlbxXgf3jv3fphI+ut7vpahT+zeWR9UHKFzXacOKy+2tyE4RiQ+UdBt/u6f7X/NFxLktXr1eFW91uyeeO18GfCg4Al6Lr6g2fZ0HWlr5mA2mMEWqZ7MVeAmWeBNv/6IH//YVGvB70+LXwakwsGgf7V9a/XMj/rq6t3RD0knFf7+w7z9w/w95+Gq1vS69OmTWvZ7vAbPAtdF+HZg4tHJabsLM2Pd/ebHyqrS+TfKuFjeNGSbPmyfDBk/kv3UdxyBKP1KdBRLj1SF9p6esvBX32jg8c0G9/WtsR7TNlLnTF5vNctWeKxY4mh44DZd7y24WUYNa7lXjLbfJltYv4okDDpDgBf5ojsotNOWcs55F2SMXoD8Gz6IqDuOqlqgraxDFWSX/g5eWx6OiZ60ocwvf3o0emTrwPQi16ZnL5p9+jr6emTp25iaHXs1DO/3Nw0i1zUQjcE7MwYjB86tEoG6eWl+zlszoVsiq0sX8a/2DIGGz685srmqOph4bW+vtW11f6bK2rv1gbUh4cfdrxb7z8SvIPJ0KA3w2vDgyoU26OqQbTNpIM5UlBZUIB/UO2w+qggcyOHE/Q/0LL1Vr61FXlWQHs/8SzmFKa+N333IpSWFJz5YEA7lugNiHo2/LW8AKCvuh7jvja5wZ7XSLaR7iZv3/yQFIELAg4HheMynNGCWryhQb4tP9rc7FebkGfJ+AugPXjRNtRhbenFMh+nUozTR8Wv9Qsd1cKygAAqH4B7KX/KuDbAII0TWpcPiOenVAFDnQyfcWY+NAY4KZG/3sFraSLZJte3l+KdxpQsXusUXwc6DS312zZqaCj/H60njhsXipcnUVY3n//S0FDIsOTJQy96HW+LmlZ5dvLURVMnXyc1bmZKsEUL405Onzzr3vs3d6fvRkNgquf93UDt1EU3x6bv/gUEe/2V9FnXCbKvD5k4Yc1NgvZmnmW+wLPoinLnJ1bhHefjlWw7BiTZRc8kG8rwLKoZPDt8S97dcOAy3AqNFXU4+C46yKCR4YcV1VbVVvX+tQFBvtWHa+utoioaDkX5W00bNszMT/7+QVbhQa+F+4ajRRkwoxWnBQHCpMWbE9raf5iVf9QORVBUf/Es58UhQ3Y7T0SXswhwZZSD5L3F/8lEb+A7DPkP2lMIYvcNvxu+ufkVQ0b8/a2iNpzHN7bD5zRsuNuSy5Zv/yirgA3oEcJHtqFa/2nTutbwMWMwsOzwZQefCr3o7bf09tK1DiV8/qjQ/LU+pS+1wAS9vm0+nw9sPNgqtkPnrZwH0B7xWZ/YhpZbLmzzjVvUEekAmC1xGFNmy299IdqcxWzyF/u4b4t38Fpch2lRhmfz+W1JfBx+8flV8StTbIcSfS9z0QM8O5TRGxAl039NHrJm6uQhTD23QI50cuQ/xhaTZy05ceaVdPJzyJr31uyeDHadfmbyrBOzJi/aNHnTpvQhY4cMGbto4sSb9yBjtIUsw7P8xJSSxClTZC9hApH/QEH4KOu8ljEYcjJjxRbFM/VAXtDmAHT1tTb+Qb5RhfVBhz3R6NOiovYWRgVVV+T5+yZXNG0Hqp8JmmYmUt9w/Dpc6HsXwgQsFgAEpPq7ta+91gIBfAMf/tPA2zuagqL6jWdfTB/yyoTpJ2YNaelhUAGoKaAWPOtff9cqKqjQ89Dd+ijfaVFzDiWbcwYUDrs7MihibxADWt+oiLxpbTLKbNb6Rm34HDLMa3k4qfWg1eagZ5iLWnc9uGXmWTJC+ODZ/FAHL+/5Sx3QxfJl82Tuvz0CgLW0wgsrq4by+bajStqo7c3HVuYCQVW5a727GCjh7ETbFyAb5Ceud/crG4dBfsvNH/q2RSbe8fJLnIJ7Mjw7l2jG7qdRtqPm1gEPK/22hQ4dVTXOLEV3zLO7f9k9eTdhB6a6WziWfJMda044n4EIAA4esuS9M7snb7r54sQ1U3+ZvmbW5Feg0nlv95DJQ8Zenz7ReRa4GrfAdebxCJFnMaeQUjK/KjS+zAdT3yDa+5nEhi1/3u3188w8y8izM9ZFnLJ6zddfsT+gttoq4uRe8GFw9bCGiGFR/tOsfBv23AWA99TXQjY4lDzS6rVTI808ahUeYFVfERx0N+hu7bDXDptHZ69FJe+paNOgBLNBn28I2hGRDEAzskGPJ8Ie1M9SbwyZOst54hIITeRtJRxr7mxQC0Q/i5cpubApr7q+umLk3WmnzMJBfS1kcv+oIM/9QdOQP9+7ycH7A9pklNmsrk/O+7w26LXzhw63FSnqC1Eks0jx4BUtv+vRZRHJgMizdYu9vb3WL/Vy8pkvk41KdHCaH3+/AWT8spKql2RT5t6KlzHTDUPBcOQoX+bkDTqp8/H2fohm7l/dvAH1+5TS2/m2tvMdnJbOr7rP4m3OYzp5MLLfmLJt3g7zb7/EZ3h2yspRQ6e0njbKtvQWMCtbuXZnaBUfx0h6gGfb6A3ujX5/6nVzpROcMgTLVP3Y0bsnj76+xHn6L+n3CINOfXfCmt1T76W/OPHMvSUT18x6ZfLkm2cm7iYUs2iCs/OsdAb3La03muhnMacwZn3Z7bmyXC8otX+FWNTTCxerqviLid4AY4ZlmJPb0rB/R61vUEPD4e1WVk1Ne8KTN0ffDQhWQFj1jwpo2B51N6pCEVUfVOG4P2pkfYBis5mCrAo3B9X+RuEbNRIC8IZDZgDURyUHn2ppSHwTzAa8uTd5R3Ry/8mzL74yddbEiUtQe1M3pc9CrzN57KbrGJeO3n197B9q6+uTa6Pe9NwLAG7fHDTtVMDrI/2DdkTt2BP0jH+AIsJxQzWYtLo22dFmTu2w8GeComqjDieHDwuqrY3CTN35HXkBUXmBO/ytqmG5MOzu3g3Tqq32KqLuWlVPA30HHUoO2Oz7TPjrUcMw1sR4E/J7tX84M3dL+k+gdjE/1As8e8zLAYOwF/iJfl7rE/l18xLnofuFUFDmtDIx1Da/bCW/LvTPR+LrUm7Lbsfn59dV5XrPK5nr5OOUaxuamD83BVAaJQudF5pYdVE2ij/lXH7+kVLZuIuyxFD+S+f4tuuXrs+3JbJByfzExCkpsvj80NBx6OmhCRgFPafsJa9joaEXSx2QnBxKy47z+bdv+dx6x4ncIBTCCcZemD3LX+m0mF+37c8+x4cuzs1dX3o85eLKi+fW7kycsm3x+vhRGMSTmTNib0D0BpN3v//i1MmboA1AWpS++/ro3QS7o6diLh1i2bvOzs6710BZkJ6+ZCIod/f7N53XpIN8Z0GbMHkJMDs5ffT16c7Oo+9dx7F7m9KvD8EO3MIsz67NHVMlk5U5Abi20KrI0DnZ5r8gO4e+IbEqtyz/4gzkgxkzzJyxzlGxv/auVYSiYU9QtY3NHsKoAdMaHO9GgZKSG/aE10dVRJ9/PeDLYJvDe2qfhlRrdXdkeFTh3jeTk/c3BUFrUJjX1HToLpQH/v7n9zbsCQgPqn0NAvCGgIA5AdNqd9jkBe0ozwt4beQcouvqM89Cnr03a+L0E+nXN00+c+Lemnub7mGUmn4dokH6JtgbTNseNKfQZj/eMs+90wrzAjDUSj4151RTclTyjohgm7w5UdWHk/EGOgZZDZtW/UzU4e0NDXOGDQso3BAwLDnvVPD5oA3oc8IxdKx/Jjni85GnCvMcX3u91jegtmJP0N48CMrVUYXbK6Lu1k4L8q2FqUbANP/64dB1MUQLu65EB68xkA28/Obf8onne40pjV86H8oahsVeWurtkHuRf8zJ4XZZ2Zi5mJw6UrLetmRcvCzXz2+tg7vDWneoG464e5fOB1zLjuemTBkFCTg0ZW6Zd8qReXUAZeL6lLkXS7x95oeWYAy2PiVeFuq3dCg/PtHn1guQShm9xNApa8tWpsQDs07eDl7zx6wtCS31GrNtpcP6KYlHILLI+HWQZEeNW+kUf9HJz919pyzeweG3x8855frJVnof5688vnhKKMgfckyr3mDTi9Pfx5Af0Nu96Xr6rPRNr1wnuhuA+N2bmzZtAmYn7l4y8fqLi4Ysmfje+9ennjjjfGbykvfeTwcJv3Ji4vUzNyffXDRxgvOaWWPvOa8BTRPlAlGOEf0s6Wj8ymS5Tl5HbBNHkXLmTxk1L3/ePC8v2/zE/NzcUugNmEkw9GUztzQpIipAQcBs/TSFYv9rUYebIvYogkdC5VUfELE/CqKsY/Ceioam4P2HKvYrtvvfra+oGLm3qWF/Q0PEnIAo38I9DYF7R5LRVrIir6EhKCq5cG9QeHLDoTyb4ADfQpu8gEJFxJ49hf1kb/DiIvDs9CW7b6bfe/fE7jO7Z20afXPWvU1TJ7+STvSzAaeSowoDFUFWVjZ7gwq3bx4WFZV86umGkwFBATuimyLyXjv/2p5DyeebmoKq60fW+vvuD7RpOFwdULhnT8AzyRsaGnZEbShvCAgAG0c9k6zYkafYuyFwR3L43Yq/bw8u3Lt3Q73/3eRDDYXQ9wYUYpzqG7ChFphtrs7hwy8Snh0z/xgwW1LmB8w6rA/1Oc5gFl1eXZmDl7uMn+vjl5+Su/bY+nllS3Nv5S8t4V/MHePk7eXt5eOdci6xysndpyw/8XZumVMuDBuHyuJ9jrt7+xzPH7Wy7oXE9d47+SVr1y4tLfHzWnq7LH5evtfSuS/w53nlDl1vC/0v1BRTjvj4+fgtLh3j4OTk5DB/jMOt+aXuPttK3XfWxa+sC62CnA1BZJxspcP8eHeI3zvzF6/189l5zmmt08qVXsfjjx9fjGFiaD5EhVa9we6bzu/NwpghfeomaGjO7AZsoROA1nb3EucTu3cvgaj64rsTf7l5cxY2J16fuuSXiWsmL3EGPHdPHX1i+i/OS878smQi2GbT6FkT1kDKwIiN0ZoR/Sw/0cnH2y8xxcn7iCx/3E7oD0KrRk2R2Y7zyU3k59/OdSq7OAMKA+AWyJ25LlDhuL3aX9EUrKitVjjuCYg6rGiIUCjmhB+uGJmssHktvLpCodhe0RThGHyookGxv8K/vmJvhcLTsVxx0rOiOii8sKnJc//eoGnhrwc1HFI0BKATPQWOVTTk2UQEQJbdv2NHYENwQ15y/9gbMDz73omJzlOvOy/ZfeaXWZtmOS9Zs2byIlh6/cE36s3g/clvBkdXv17bsDfoNyf3hgfU4lVSRO84tL3JJqJpw5vREYGOT+8ojwiqzjs0LWhaYHRDxIbaUzYRwRsCgjY0RJxPzlMoNkApguFjVPQGRUP5BkVhVPgcx0Pl0RV5GxqSfSui9jZF7KgI2lGI9yD8vM2G2qiDmANn6hP2BraEZ495+TkBuPMvejkdly39bSgUXBANhsrKHBzWOq33Wetza+kYhzFH4lMcnHxKHNYvzc/18f6tk4+Dt4+3e/wRPwc/h7pRt33WOqXkQ/MfOjQ3xcdnjF/+RfeUUtv17inxJT5r16697eBXtj6l9MjFMT5+TrdKHfxyncaBF0GOQ0u9Ab/FpQ7eTk7e7vMdHNyd5gPFpWu3hZb63LpYB5mDn3tLRkZfi70dfJx2hh7xcnLaudLbx/3cSj9g1mflykT+fGiTR93XG/y/F9+dMOG9dxcBtUvW7P4FksC9IWNnrbk5K33NkukTJvzy7kTn6bMgFUAuIJjdvWais/OZ0UsmOE989cTuRUumO0+cPhGHgeyJu69PXzN16pkTjHQMiYHhWQdkNjFlrc/8lxKH5pbdHieLn3trvWycn09dVYksxSd3MWw6zFQ7EzxrE73HaiREveDqwydBREGHmxSK4IbtcyL2JB+2caz2rz5cHnjocISjZ0NERYNN06GgiqamhmibCJtoG4zLID0qTjo2BZ5CnxmkCLZRBNUnF3qe3F/uGIH7NOwvbGg4X64IbGjYUNg/82BmeXaC83u7r09cMusMlCkvTnA+4bw7HSOEP0Qd3h8RfbiwwTPo7o6G/c/vUORNe23PKZsNnp6eDdGeno6ewKxNNMGs5/nk/cE7fAPKFY5NhTs8G2wcNyQDs8HnkzfY2Jx//vVhr0f5zgksD1REbLApTA6ocLSJ9izMO+RZnRz4/F4bRfCbydt/E/T383MOeTZVBH0wnBjskXSRn+/lAMz6Oa1dv9ShJB5jsZIyn8V1L+WDtWxDU3ycfHxKxnh7jSlz8vJaPy/Fzyl3vVOKw/pcJwfA1cfLycsn/4ifl4PTuHlVuQ5OKfEQ8kLrnNz9wJh1iU5rU0Jve/ngvwOw6OS0tMRvaSLfyc/B+9Z6J6e13nOhYYX6y7b0t9i3uBS3IfLsGC+nMaV+Dg7z/bbFr/S7daSOP0+28rfboDFwOjbfa62Xw87F55ycxhz/s7uf18pzDscvHvc7vvTcU9vGxYfCKIzIs8QW8d4vqHPnd2/+csL5fSgJJk6cNeTMi+9NuDmZSAXOzu9OBFAngEcnnjkxYcLEe0smTHdec2/JdPx+b/SQExMnvjfRecIEQHjCRDD2mk3vn3CedfPe1CHQiRGelbnj9SLVU3Zblp/iUAWruHMOR2QvOPlVjSu7neuQ+z8HYfLNDBogGwTaROwJOBwNAFZvbnBsUgQdVigCI2wiNkRvj9psYzPNHzuiCcMGNngebmhw3G5V4RgRGG3jqPA8qTgVZFVRqFB4Ar13/cOjyqOjg6PQN3tGOzZEBDYoGqKbChWOO2xsFDY2+3fI+0eeHX0PeoOJ053ffdV5yc13T5zZ9L4z6uq99NGjN/0hqAHAJL3A83ffRKexP2LPefQZ5eRdUjjaIB3a64gX7OnzwTYbni93tKkIaPBUOG7Y4NjkqNgQlbxBEQjMNkWfL4Sm+e7dKBRBUb4heH/hhggU0fPNPEeUqWFvg8KxobB6797a7RHPn8J7GTVjhnkINvPg4sSlTt6A6xintTtvOZRcBFfOX+peVub1W58XXrKNT/Fycsid7w1SyXXyyy0pW+vnnVviBOCmODmMIUMmpGPrvXHWOFkVUJ2b7/Pnl+Ye8cMpYxyOl3iNSSlxcndKnO/gPcbpdq5Pym2npdBiAdDH5jt5+Xmvh+oq/2LoEVCrg/ezK8d4oeN3KoVQ61ACsi312hb6jrf7rfy6c+DpnfGhPg4Ox31wDiRYHy8f8KyD17mVTsdDVzo5+Z1b6Z5SthSK/rdmHEQa/l+z3gUeJwKd4E+gdOLEV88Q7jyzG/idPn3CLziSPh08Oh0Mi6EWJFfnNVOXOE98792JZ94g599P706feJPgfNMS5182nfhl7O/yE/kvOXh5+ZSkILtz+edyvVBhuX65R6p8nByOlbqXpoxJeeogXhymM1uhNAZGRO+P2qyIVgSGb45wbNjjC6Da2DShWfYcVtg07I26ezjY81BFuY3C8SSkBMWh+gqb4EAGADaK/Xl7m75s8nRsKj9117c6wPGkY0Ry/ZwNNp425ISTimBFYeDJDQ2OaOumz/uHZ9+YnD5rwsQJ0yec2A2ZAJXxPv6jBt5/cdHkPyQHNzUF5n1ZHnH4bmFTRHCTwjMiAoVoADJtHJEA3WjkFphV7MG7ZrOnojwQPcJ+T0+Q69M7ID7siMpTBO5vmFMfDqW0J17Lhg0RwefzAF6b6DfzGjxxr7wGdDRvztkbfCiiaQ4wqwgiAzAmLVucf2wMKn+pl5+DU5nD/MVeEGjLIKlCYNhWgj7dHcLAenT9fl44si0F4qbPNpChT4oPgGVOPuuBT4e5siofb6/cEoy9bh1L8XJwGOOV6zPGvazEz8/v+Hrc0AHyrMN8nzJ+ibe3t9Ot9T4Qh2/Vhebb5ofemu+AC27f8sKozsGpBA9xWOnl4zXfZ9vilZBb4+PfWevjt3PlET8fr21OwOyxuTu9/ZzKdnr5uZ97Z8zOi8ed/HzOnfP28nI/PkWWhZmnGcNn/t+Lv4AaJjCYXUMwO2HTEkB2wvtvOE8HmYJngV/8BqIJ2QK3E5zfJyqE6e9OXHITokFrwtVrpoN3CbZBt7t/F5o4tGotXq+lYyC2H8FIzMcdf34+Vf/I9fPyS3FK8fJyenbGwRnmOq6paQwMjN4TVBiMXj+g1jFQsT/5MPpJR8dyx/JDpxqCMYYOqGiKBnwV5Z42FQ3lNpANyoPRxEig0v1NTYdBYjaKvdXVURVNNoGKgIoN+wPBqyQpIiLebDh5HrdrcGz4XM3uB70B9cboqbNQSXi3T0xfQvA6gVSd8/T33r+ZDsw6Bno27LGJ3v53QC84EG8agBvoCJziJQJuwaoo5PlC4Hh/k+KkzY7yYEdFhI1joKNjhMIxGu9oQF5gcLTn+Tm+d6uTIxpQsh3BwRUoPF7XQoi6AC8+m/YX7g9W2AQ27SedyZxlMxhha+bwmsT5UA2gvoE6Hycn91vo7m9BFPCCfOsEjAGoPj7v4IATZFDg1R1wwkAJcAQxmiE7JrfEB+ORsm1Hcr19oE7AtfjpTU4Ek/rcBhWl3CL8+Wcnr7UpfscuYozl41WGXbj1tov5fAzZ0NM7eENV4AB6djoGORmvkJ8Dpm9DV/qNyQ09ngtI7yTP9gJU8DYc9/NxcPdau9bHfSfkgv85txavi/daP3cvn+NT3pox/INlM2b8vxd/IVCcDvSBaQl4f3lv+nvOE09sem+684Tp04kQ+z66/4nT30eTAN345/wiaZh3CV5x9H7C1WfAyDgBveV7zi/+bh7fFuNFvOuoAief0lzUDN4XJ58XkE8nd28/Lyc/IfhB6QAAIABJREFUv8Xoy/DqDJ8546BoFQbTjopAT0ebpv2bgbXy/ftJ29qcBJcAgsGHRh5Cc0ZsRmMF2vwGku7+8xsCGxhEovFBsY4b0LA2Dad8q6t/g8ZXFILJFNHMCSdtIsrLFeUR5RAVHBU7+olnR2+ajNLiH+QrFJpskaqZeGLI1D+ER6ALDy4HHe5HJ47c2AQrMFQEvyJDBLWOEY6OwYpDewOJQBNd7rkBuLUBbnGZDUHvSUXefnBx9IbXwutroxybTipsTnkG5gVizHnSczvBaUQDPsuDt9sE4gUFqJsCo+tXDF9BXMJmzjy4DeADp6LyQXtOXmBAiJ5OBI9+XgSXUA84LQWGgGAHHCJ8CMxC4mQAS345uB9b6+fgs9Z7KTpGgHQMSM8PjYjzvHwAL8DMAf8gKGOo7Q79wVJ3b4cxfk7eY7y80Z2OGzpqHGRDBz/3pQzNQncAHmZuvNR925GVuFWJl7uPk9cxH7wODsgKEVTc8SQkvEQQVqp2Ir9gaGTe71z8FjiKLzt48P8mE4l14vQJACqhWWAR7ArInUEnB1mA4BYCK5EKSCfIgHvCu4A29k98D83TJoGMncl/nIrzN/0OwkoZZHKSFbzr3msh8wO7PrmlyLgTpBaSl/nLmqt45opljRhcoSf3bPC02f4mZD2gtok0LxoZYEYrYvTv6Ui4BUDdDjpu8IyIxskkKU4qPAMbItDiTYq9mC0tjD7pqNgTHB1MulpyHIdPgrDB2wzPcvqFZ9NvpgOlKO0EvNWoDQj20wl2l9wc/XKtAnyI7htvGCRbGxt07hBE8ZuRZxmqtQH3bj/kCI5UBEJQxwU25cA1TlA0NSmCIzZs92xydMz7e21tbT0ZmkVsj45GDaDnCUSleDYogHQFFIQoOUQiR7L52oqWNPzPQAsB5xiMmYCUXLSBH9BFun/89gPa1vrkgjuc/NaS4Rg+3N3xi0CW4Vk0mw/0XuR8P+jF0F7uPmhEL8ikgJCDe+5K0ojkbfDzXuvt5+OTcg74A7RzSaM75c6fV1VV4ocDAIA3SJbcF5zrjhuMWQqp9xywCXkZ/JU7hsgpBMw4aS3GjESy9c5Frqpw0loCcyLqDnVhyrbl/0a/S3o3AjLCEQAvNAX4PeF9UObECe/hGPaTFiHgJKegZSBOoANktsne5kS4mtwBjI1GfG/N716ogljtRKoJ5cbrC1EAz3bKfSfXHaNPPxTQwa90xcHmSt6yYlU0EdVImzXtfxO85IjhFeEjG08Io+hRPQ/tDwab7I0AB4OxbMoDtzcE4pvBZCAAjnF4k42i/NTmka9/7onR2yk0fnAEcxwdcYRNuWcDumY8pJ949sXJmFMgdTERssEJpr9iXurpv8wa/YdkZD56/3aF534igiLPpBQYa5GXi+DWc8/2kzblGGOhgDjWEPF5A0ZfkHNR4qa9NhGK6AZI43hld8x5rT48ORD7bc7bRO8A83raeEJtoGiA+OSIsWbhnv2KYM/gQ/sbohuS5RD5zOniyjJS8/jAdBiUXoDZUu+1aAEfPxArYV0fHwyXMDpi4OTlBA4Bp/nkMtDBtoNDynycCTidA4R83L3Asj5+ZFQG8oHQOReyQu5SXIw3w9tpvtPS/D+j78dIxcHbzyH3+LyXpshCyRuD5xIEAAN/HuMOsgVq5zttu1gKpW78n8swqNsJIIPTSM68d+LOa9134ve5c+5lF8954QXDpcDtudC3YJWC9F+zfmmG4/SJ7xKUOr8PEgX21jCsOvE99HsME09Yw+AaJDp94m6CUmgQcBrBKQNyQtETfyFcTPgZ4J71u/zQefPX4sUipXTPLQVSUS8QYqrKfot6Qk2isIuVzTU8o0beeNIzOhq0BAbdDi0Xthm4MeSKFlJsr/8NdFaBh4G8BpvzgdAebN+OVjZjkhCP56Fy6MlsTj3zelAhTlF8Wb4fLGaGQSAkXlwHPQMAs0PdHzzLefE6mbtFyZe8Op2MwSZAP0iQu+T6K69AngWr5mECJNmqEPI3+gPH6D3bHSGjKDAQRNHO/wadu83z5xnpAZS8A71Hc4k3JJ/Hq/Z5AMDuqDifDNNEzPDidlAm7MhDV9Ng85s8G8/gpuC8k+iWCp/e6xgdGPz8KehQgg4SdzCovGccXMzfiW6/7JjTGHTU3k630emuzx3jt/SYk9fSkvidgK+PzxEiP4AC3Z1SxhB4Aq4+0KajhyeQdfC5DfHTa2joPOA4Zb6Pj5dXGewQAHuHYw4YkYFujx2BaOBQ5eTw2/Vjlr403wfC8jEoBrwcjl2EHa5s3rEyH4iyVZBBCOvPd4eeayfellInyLNOTtvy40sB6ltzS33cvY9DkHVyfxYqAyfMk3lDP+sEXRek2ePgbwz3ztm+tQzj9WXALOnoATckojeY7nz9l4knAMX33wUmnRm9wRrCxMAsk0Cz7y3CJMLEd6efgPoADG3ej09n55tgX1AypAYYzfxuKD80ESVE1aAy8vklEGOh5/PyuT00xdsH4gve17WJmLuF3gCVfHBGTDDIZ04tUQgl10Y3KfbPOczgUREduP1wsCJwe1RFsCK4HCoEx4bAw9EKx0MBFTZEgkUKjgjefh5DbyBDccrK1yoZGqGmORWHobElHa6nzcnyiDdtIvIiPD2Bmf7iWdjIEBFq+hLoZ29CWT3rHhkSgGYnj/5DFBFh8n7ToIDCzdEzGOweEZj3piPGkuV4a8C3GwqB2Ybnz5djDqEh+FBhBQZtRJ8ADi6srj3VgDmvDeSFqxg5DRYXpGDlG2wiCk/hlS5XvJmH20Q31B6CorfQ91SEzf7tARinRicPB2aZeZoZz/JlYMZ3lvp4+2w75n1ORmxllnrlzpf5YFY2fi4YxM+n5LcOfj4paKJtZd6YRIDE4EN0XSQBmGPKoH318Zoru43Gyq3z+a1P7lKgFz3/rfmAb4mXt/tSTNvC9gVcuH5tme18IozcgrbWb8xSPqZkoY0v9YHwAXwSQDqUkjYvRc8PzMavdBqz8wWMxHygq52yc4wTVAR4WuJKdMfnzkEaIZiNP4eXCpMLTl7uiNWw4gOiY2J4FhpFQozT338f+taJs16ccGbi9HdhaUBQSOwNoDcAZs+QcQYQOmH6LwxmlzivuY5TMChrRi0Gb9A8QAtGZIOJ0Bsk2vKryFu4EpXilB9al5K7EhK2j/e4Ksy5eN/y2oauZjFCcjBVjMxciWgq32N1GFKfYtjhQEX5Hv/NoB4kT8X2zRgVb486XB5M5sGAWZvDaHVg9qT5DIAACtqKN4FgR5tT8EEJAgHZRN1NLnTENIPnSfSsweWFiobzEA4Amc/7iWcZewNUzvu7J5548cyJm5t2Y/S6Bmb0k1/5g++bwY6YvYhoCqottFHUvum4Z8eOwkLFhgboOPYHo0wbColwm3y+ITpvzqkNMJYhYk4wJhZsbDYkJ2Pu4XxQHkZWwcmwnohKDoTIdBKY3RGwFy8D0RtAcrd5/lR0dNObUac8C2ujqk8FRzgGMTZdZFA7c3EoHzNasDcY89uSpX4lF8ESmMNdnJg4vyT/pfx5Sx1AYbfBgt5lQEl+CiRViKfePjtTIK4yqHVwGIfJHwdv2L2AXXNH3Sqrio/PxW0cymCe4JOSeM7B+/htdNteR6CMKFk6lw9NwlqHpevdvdzdV/JHJWKSK76UyA5TShkZ2QuYBXAhzzKY9fa7lX/x3PEUh22yxJU+Pn8m7H588TkHCAuAKoDrA12Xu5fXny86uZ/Lvzgq/yPShywbjnkwQG4CRIDpzmcwSTtx4r3dv7y6ZMKZe0TOdXaGVsH5DCPLQj/73sRX16Drh34W7PLuxDUvEohi1GUG7atrYHQA3c/uNTcX4UazfgejHtlaB8zClKEySkJDU7xv73TYBrOdI8hdybi1t1MgG0DTxUw14v3JaiqHhd5hjPgbYDXb4Egmv0hCf7onqBbzuvWYA8KsLfactKnAMORQcgUAzpyDCc/tvlGYdQIznYJ7zhyoi4IxD7Yj+uRJDKoBWrRzORDjieG64nz/6A0YewPy2l7fbZ4Hm3Vv+ntrYHUwdfSQP4RD6br39QpFcFAUtuYUNuQFBM1581RAcMSphr0YfNmcL9y/p8GTyAYbqkdurq9OtvHEIArFcXQ8nxy1AZ9BeTaBe2FhAIuD5MAIUPWG8lOYroWgodict1ex9/ze5L3g78KovQ2FQfXVhxRNe4NaQpzMmHFxVCgkM4JZzCU4zb8IRejtMqfQ/Lq5Lw3FHFXK2lxMT4JmvZdicHXkz7kAL6ZZneaBYVrSC1UgR/cq2yMYxOfK5pbE1yV6o4t3KOPz1zqkxM/1cUo8AjR6lUBivl02JbTOGwO0nUQI9oYxlgx2uKGlwLg3mQcjUi8mIDAHhrsT2eAdv5TjL8SXhp7z21lnu9JhWzysI/x2Jq78rQPsDaB8AM9iVswh5djcp1JS/hw/rg7zYGA28OyL72IWbA0EBLjHEJw67x6y5vqaE2dmgWehPyCfZ3D0PWhpwZ7AJGQIzNlOnwB7xN04A5gF4EmafH36zRcnA9fpr9x89T3n67+DV1oVhqw+tilEIMiHScztOp8jKT5VVbe8/V4Yd2wepq4XQytDMoKswH4Whl0BmJT19MQkbZPjHl9M2AKRGHhDLIClQX39Yc9yIupiwqDC0zHwkFVFILp+kgJt9hQSrSyO2Jx6zdcqCvzbkAyjr/3BDScVJ4PLI042FKJzxTg8UHGov+RZREWEpcUv0+GucOLemVkw0jgD7znYW8CHsbqwaW+1VaFNU5BvkCcwG70Xpi4wmylXPB9UuOfkyYYNbxZWeDYl7whUWNX7wrGcUGlw4efBEZ7lhVYQC8CzG5qCC5Nhxe7rH9DwZmBEYV7Dm0GvJe8td2yYcyqvqTC5OvlQQJQVPiuSw6sDTu2tqDb7gzE0sDgRNt8OMDWA4exSp1A+ZM4jKTtD64jBLMy1y5zyj9yOT3Ea40M0WUfmYV5Mxnc4UgpbRGgQMFCCGir+NgxjVw7l384Fz8Ic0LZuKHp6d/fcxFC/lS+Frvd2mrIeg5Rt6wHc9Zi6nQIdwrH4234pt0uJSUMibMrn+2GCAPYGkArGeAOzTsdKMSjHnEJo6PH5xFgrdD3sICAi7FwMuQF2XYshWYBnvXwYefac03HYkMHWZspQ2bi30HsAKUSenb578rvv7h6dvgm2B0vWLIIz6b0za67vBpg33XwXaMXE1rujl9wDLJ13A7MwjyHzYGveuz4ZmHW+uekXMn/rPH33EOc1o+/dfDd90e70RelriC3iC4mk5KgeBxjJ/CN36ZFRtlXndtry5zo4VeXno3Zgb2DGLPIycwtGGQpYZGGMX72ZTH7BRkYR7Oi5PerNU1EVnsGFcKuJbjh0uNzmZHQDBEUICxUNpEONwFmKvcn1vhjsoOPMC5/mm1wOk0bCs3sq3iz39NzgWR4V9DkYbQ9+eO59vp94lsgGzkvuncF0GGxkYBs3edN1WL6PhpkxeBasF1RoY4O51/JDyeBZ+FAEVCQ3NSTfjfo8uDz4/I7XXovwfHqHoyIZbji+9cngWMWO8+BTx5GYu7UJ3BCQZ5NXC2eH+trqaTteiy6HadfnsG/fcR68fSpPAde4oENBd6N8g06BZsNfO1QfUE1svonQh7QYo3bGT4HwrF98PAb+84+VwusKlgCyofPKvI68cES2MgVDf4y6bleVeXlX8bfdrgrN9f4tyBcD92NltlXeDiWJgBWE0hRcKauKd18KTB+XJe6Ev+F6Px/M3XqVzi1xhwPPUnjVOrkfn8sPdVo65Qh8z/gwawBmj630frYU+iMw7fwxXufGYXzlhzmF+MXnQuP5stD8xNKqUXzw7LNEr7QzH35rDsch5UKe9cYY7NjtFwhmkRh7A2K2BsySIcOZm/Cj3T35fef3N40mlrT37k3d/e7EE7vvQfM14d4S5027b87CRAEEB8K7ozFVdub6id1DTrz3PlpqEyybIEjcWwSLL4AWNrTwxLlutjeAgssnMQVDzfW2sLacB9uguXNli494+d22HUfe6KeYCQVSxbCfDXTcnxfuCxuZwPBqqCghGzRhSihwT9RrtVFW0Y71UVGHPYO3w95AEdEEOj55vrYCUl6D4iT0R7CmhS0iun5FxEgYP0eVQ/T1haFqXsAOzEfAKApdtGNwHibCFPsLA9S8ftDPwn6W6A1OYDZs94Qlk0fPSodPo9lwfuqQP1QHvbm3mmA2+W6QYi+sfJOJT7FvkM0ewGwHsr03AAcCnz8fXc6YqfsmQ3UcnDdnQ/kORwjiGxSeO8CzG8JRGNir+1cHfV5xfq9j4bSo6mlBDYoA8GyU/13fzb6+4dXVe38Dc8bqaf6IqUB8bs1/DM8SW0R0x0sd4hMBlfnxo+AoCMdEkFaZ3/rQoYkyWMMuHZdSEj8utyT3Nv9iKB+937n1mKL08gu9OO+IdwqQmnjEZ+fcUn7V0MTEqtJQb4eycTIZItjNK/FLCQXFLq7CxzGE5ZDFu3tdTMznl73DJ+6MxLALdl1LQ8fZEp6FjhZfi+dBWvCDbJAYvzIes/uyOvjZgmed5i+G4OC9TbYY+d0Jc+8x5+avPW577nj8qFEvyAhoGbsuxkZm8k341sCX6zo+7o1ecxMWy6PHTk6/l777Xecz1yEtvOcM9BIWJqqwWZvW3ITlN/QGZyafSIetzJpZoyfDVAaqgjPpY8/AD/fe6Os4GT7/jF1X4pi13g6hsMAoQcibxNuh8K/Jr4KXsntKIh9DMZ+VF4nzIkEsaB88SwykMc/j+Ux1RFMEZFub8oZyzz1WVq9F1ds01EbBQFpxKABDGvKp2FNfD3l2LwZmp+YE21QERUXNYZSdc3zr/as3Q4RAAMTCvKigkbChQidc/zkoeAeU9nOq+9N+dsIJYujufIK4yqXD0YgkEssT479DkAIcbZJfB2bvRm3wra6HL029Iq82vD4IM8wBzyC6yKHnP4/Iu+tLPCqCyj33ViTfTQ4Ih503hl+B5wPyNkRFDbMaCShaBSVvSA7PswkaFu4fVW11yPduXjBegno49IJnD0GCCMLIE47HjN8tqVEzzxJbRHTFZcdAug4rSZxKGC4NHcoflV+GIca4+LllXvNCq9aXhL60smrl+lDbFxJhOXpkcV2u09pc28TQ9e65U2CXXeUAdBHLKttQWbyXTwqJfIAGvZ3yj8RQr1xYlbo7lJWU2SbGO3iF5ufnh8IMEoouvBiJo26nwEkC9rNQsmL04j0mcd47kDvmu98KjS+Fu4wtPx9xvEYlrnRYHA9FmcPORMQQWXv8+Lb4nSsXOxy3fWnbxXFV5A3A/YhdF8Ozo2f98iIxl4UzDKy1JxPv791wEIek9u77cPbCYOrd60smAsPEyGDJvVdGL5pwBqa1E9ek31y06YQzfBdHv0J0Xjd3L4L9Ie6Svmn0WJh9M3Fk+DLvPzs4yXJvT4nPH2dbhQg88NSQ1aEOcuOB2dzcqsUHiV09qeKZw8Gz8EUIigj23P9MNWZpYYto07Bd0bTZ6i5oxlERUBtVEUE0XpB7twdVwIamvmJ/UAVm4JPv5tkEIBxC0JuK6KZDvgh2AC9ABRo1qHBOOHSbig3REBQKA7dXwLAr73Vgtl/idTH2sxOX3IPt4ZIlr8BDY/IisyMnfG0IZvMYnoWjWsMp4rqOMBsYTO3dC1PJqIimvHB/qyDICp/vfd3sI5S8HTaImPKqDaqHZ0YhMAtHRjjbjKyFEw4iKVUQIMPLyBchHs7PeWavIhmBIGqrXw8Kv3vqdd/68IC700YSzBIxC38HF8NXnJENYD97a34i+HFu4mJwBjxF4CTDL/ttyeL8xVDhHBk1BRE/gcG56/lA2Uu5fnMTE3OdxuQSXwPv+cA5/8hayJ35kGerMK6CWWIdTAlg1F1V9oJsildKKH++l3fZ+rJQqDZzE+tgG34bRohD4To+Dl7fxy6OG5fIyLNeDs86eF3ML3WHXdfa43y8PzLcKBSeALJRK9fGh2L+y29b/mLMNh3PL1l8btyz7sePXDwXP7QuFCyLO5G4iAQq/wXMzoIPTfo90MMQDB8glC0aO/n6ovTr78J/BkxKTA/Bs8SR5r0z6ABnTWR4ds316+To5FdeeWXWCcz1riGDD5iLwxkKN8J/Is/yZbAccuKnHEFUvPgpUyCSQwNiC62dj4+MD9/O3COwkYGNcjPPQoStHWmFubD9w56JcNxeG7XZJnh7cPRrBLP1no7EYcoRltAViqYGmMfsL4yKGnkeblGK8jnVFRH1r0/zj9qMSYc8tF91VO3zUDaEIzhovW91hE2emWc3zDmviNjrG95fPJueDtlgCdzlhqDezFEOIM6SP/gpRBViDPimjSdcaQ4FgA7NyHxmBzziff0PRWwgwQugEXjtVADcuMCzd89Hb8CAC85fiDZaHaDIG2ll9aYvc4icB66N2qsgrjaI9+DrX39qhy/DszjgD1cFEC6ufIhnnUqPQWc6nw9VI9wEEPJlKFgWCSgB7OaNqitzKpHB2wbOs/FV64HSUaNS1lblj0oBcMCmMlv4gr007ghORmOSv0TZb3OPA5fkJi+kVCW+BMWXDBZeS0tuJdaFeuMH/MdaIhaRs4hY+xLRG2BAeNHB2zaxdK3ftlL4TSRCTkGwFsgPEHtLS/mJuWPgvhC62M8p9Ah/KB4VP+Y4AnxhE3dBauXZyfd+QYCN0UyUNMhiiHMAr8TJYxeN3v0ufG6GvDvhzNSps87A7WYy4HsG3uO7J0DXNWHJzXvpo9OXOEN7PnrTmfed33sRTQbPmrGMvyPpH4k8Oy8xd31u6ai5t0eN4zPPZT5ko+pulaJg61GXLX63gO3BLdHlCoQKwvTsnrvTFNF7wocdDj50V7Gnmmmbpuggq+rD6DBh6G1TDp6FAMt4htd/Wf6Mb0VwQAAGMgHlgXuDSFuCax33EiQghe8onANbW9gg7J123rHhPPx35f0zDzY2fRYUsnBhZICKMmODFH0q8buF1ztcfcv3w8PnEDjwGQazvv61m6sRAKeivDl3I6cVTmNw6TttQzkwy+Q4CiU5tWEOIoz4Mr/JRz1czvM8AX4IxYCpFYNZglWoHMiH+UQyBmv+Izzr7lN67FbKWvg+wznMr8QcP5kMwhCTIxHxMWQySLNDibQAr8P169FIo2Qp3vnjEn381sJjj8iRCLUxzvYIumYiBkMQTry1dm5onbkhd46ThXqVkfgG7mXzS6CSWHorHrfGbdok2VBb6GcxBvPxftZvTGg+DL+3lTolEhkRzycPQGQQeI/FH8fQbH3+Ym+vZ8leGTQIx3Eb5NWcWnh2xv9NngV5luCN1DtT30DuK68MuXd9yZlZU0evgYM4AqhdH3J9yLvOJ9ZsQqxV8OyJ90CrGB6fmD4LAsV1nOU8CzESMAAZC0ImiG2JI5Oy/tj6cXVw+PmVI/G425CRbKtujZPB7xZwJR/L4KfQsDe8vrq8PGK/f3UDxFnfzeWH59jsgdesL8YunrX+QRUgXXg2wlg2qGK7Ob4BtLKKIN83I14bCT3mNMeIU2hnX/SuUdF7mWasr/Y9HJQcjfgx5xWbp+2IzhsJL4b+0Ru8OmT0bjPPMlhtASwq0BxHBnRfEbj37rRpiK8R5R/FZAchcYKwokPQ+QoE7UCahiP+DFL9KwrBouaTAMGRFQiegygj9xNClOxVWEXBVZOB6IZCIBt/bc7AqUQ2IBOc+CB6AyevkmPz/8ehRJbPr3N3Ws+EQSEjMACFRIFBcILcKtLzAorwe5onA0RGbfOpeiH/HytzEU2RAQsRTTHAZ8DFx54X/gy04ZtcNC+R71AmG1UCswYSWckWMWAeCuiJR4XCvg8WOj6Jfn7xslJ3p1src0eZg3LxzTcKrYLkET//hfnxofFOTngaeVkgz84jTyHjOfLdKs9eP3MPfTrTsRHYMt7i0B2MXgR38PRZU9N3DxkCk7vr6UOWQB82BOf+Av3se8Dz5HQIurNGD4EcMfrEiVmAqfli5iaM3y149gW+7RRUDxFamAczH5CFZIgmlv8SfMVJFRPYwgk4K2Jz0F1EO4qw2QOPhIbttUGbg+E6vp1p0gD43foCqLVWAZjkzKu+G7A9wBzKIBzM5Vt4iLhLhycHe1aQdvaNCpoT3MxkvtX+tb47TtXXJlc8U73DcS/4mJEN+u53++rURdehN2ACQDH11lx0c3wD36io6vo3Mfx6BjFwmGhxBH7oAIJqq6FwDTDDE+Jpvbkc1dMCXr+P2ZEYqNWPDGobOAZutnmHSOQmIgP4D6uFBGS+xX1UM5glcRFRoTOHLx4KzLrPL709z6F0HLzEvZxKEd+A8CU+4arFNEJoyvyXMCLjDx1F/LvROrJR68v48DDgL63Kx34ZaTDijUXOaU51U5rjeMAToc52TFkifMXJ1Cq6+nn8Kc14bjkZD2zmWVg+LnZIsR1X6u6+beWxeEZKbT6LD4hi0jR+XvyRRNnxc0zIhaFD4x0Iz7YkEO99efb6pkXwy2/hWcIViMmFOF2LoBEgWJ616fr13WMRL+bEGSgT0u/dQ2SuE874GD0k/T3nRXCOhiy35ubklvgGDMne59mXEl/Iz0e0rsQ2UUPwxuS/NA66EgxGGcySGh6+YqYLRs13631rG/ZvB7G+uX8kCYCU7LiHtIxvbeEhROQ6vD0q3KoiOsIK0eT2jDS3tf+0oLvhhYdqrcJr7wZFKKYR4vF93TeqIc/cmEGg3eode6Pgu/v6MOJ72588m75mOpFngVgzy5LSY4uJIwPQJu94emTUNEQ+gjRrBhjcueEXPg0irS+TPeyvNjMwIiVCQWDOsy+iKdZX14cjLGJrqq9/PRnc+rp5Xy1GY63HWrYYX3GGZhmehWoWYdFWgrjqQnP94IQoAwQgcRLWQii5KfmJKQRUoDJ+qBmgtqOqMJgaeiRUdjERvAvCsyVh6LBFtkkCKkdIH6Z8AAAgAElEQVSZGQgR5zENQXjWz6ds6Au4JYLFNZ/FnMp8YAeRZ2Hgd4vvg1BzpSlet9bPB2m1SL04C4K07dD4qvj8eDhkQWYhh2SIi0h4tiW18uzkTaMRMY7wq/mPoHcscb2dCtUN2HfRVCIFIBAdAs5N3QSnXIAUgRTh0r/old1TfwH/ElXZZADcLBTcvxHk2VB0HaPg705GhrKWR+ObBGVCRyKDPNMsz5Ie7eDBu1b1tSPDEf4yvNo36HCFVW1yMKC35xk0iK+vf3UtQiJuR6dfEX2oGjoCxA1kGs135F0rq8JDd+Gfujncn0RDBGrDq5OhEGVa0mok5N6gIITzigqyOq+YY4Vr+0VvwH41fQjWUzDLs+aXvqUOGXkWUceCdqBMEESjkBVkDAmwrK8lnbr5hRvmO+wZs2iAYRYiPzHnwKnctxbhIaf9quMPj6qfRoIdvM7cCJoz8w3NV7R8ktj0zQIt5Fm4ECBSRjzpeBP5O+E5i+Zg+JIvS4wnELOtWwkSBRYRhgpiLhoJQlsKdATQIwCXfNJogBOzZUYs+Z0PAJM0D+E8QjEG48NnZunFqnjZOOgBmCNtPnBxYmIp7AdSHI4tTrklk407N2abbEpi4tzWk0YRHcIoBAyBCRmiOzfHkYFs0HoKnntfbwCWhDoWkGxOpNZHI64RnL6xMhtUV8AuNDijF5HgBzhv6qZXsA/Kc6IWm7Ubk2ZEXzB1NGLPEIIhf+Y7QT8L2QAvZSj/BQg5/LaPh+jOx8tUx+dfhChLhC9mER20Gjq810gT+1ZX+FoF3W2qjzr1OWmP+rtB/uF3IRsAeBXR2+++hs6xeYDia2U10urN7Vg+zjco6i4hLWD29dejNjeHDcJArRrhPO7i3uHDPlcEhU+r7Se9wavpYxF/9gTqg7zpUGs3VwB4FuuDYWzkazWNdOVAKCH/tgnHzG9Um53kiuadmK4lF7X8NJ9EDgPFvwJym8uZTTKngJg8+H/wIj/ez28lAtCC0girycCEaARZC1+atwkcyW4+/uMTATWPpEBbAFATmiFwZVKzlGD+0fKJo7ZDV5bIZCTIwUUE+gbq8R9/spZTyDeEg1LMB99aud52PkLQ8N/xusXkidB9SwJ94XXBaBAf5sQfhXhdiPZ6/36tPIuaBsbMcaZIlTN9HJlXIHuxeBi6Oqa3Y4IBQ22A+H+IO08OjgVYmb34RVoLZzNnMqdgF3Rd5vUUZM25aPliKoLkDfVllg0YgfbgB2gitEo9GXLVV2/GmCpqO0iymZBIK9YfJvxqtaOwHsRFzjQnBK3YvKP5F1Q+zE6C/5bjZNBNkGOOi4gImUH94g/GeQPRS9Y4v4/YEOaCN7+tqBwmzjfGR1DKAnv4a85p69fDexgObj2hd1tkTsEsz85cnP+Sk8//IEoxIMRPhJ6AgAKphS/JNpJZwDVv4xM6WGCWXAPgMnsfhOD9U9F+JCXWyUq8vcrisWRDm9eBOUQ+IDoPnYI4HEtLpsTzYek1DgYz2yCLEJQ+nIhyAonJwUWf423CMEOv3yLPAoL32aEZskzMLsD2njluF9nb3PMTrAKf969o3o09zeoC5hJyUoveABm+n1pfmZaytaynAF6YOfOt4S1NS1p52kgEqgrab4WVGZtbD8PlKAT68a9NDoLi9YEmfQ1RlR/Y1fanWXqEvRdieVo9019xvt/Ae3vmveujX2Ei05N6IjHqyVvdEucbXT9emIdYtm3W+nebmVMg1Tl8BtZamnuLqP6JogBDeihnZffbou2GGSb391Qdh4UBQQ46dVnzXmDsAfJkDgB3CHnA55f45cKQgU/2MYTEHLz/gXst9l57C0GE6jBJRuZpd9riBbp/vM0Gecz9n/F+O4e2EWjb8ixDkmacAYzYAIaZT2zdB2gbZDPnkwYyQ5chXvwi55qvxsXYbOHZ+1lo2UD5sWkuW8sYDLIB1gdrwSxpRhiNYr3YwvqRVs1jabIzqAKB1jB+Dv9VBGIc8Id4B50ROaeTRHjWMRkM10/zYG+MnnxvzQkyEUOqCi9wcy0yPOtLaLaTzDyaQ9DPEg0tRrUz4qE3Wo8JSHAmgICxDSZJW9rgV9+/QiMiblfVgZFlhIGZ09qHKw6RkRnehjpoD7b9GeIx6dqZKx74wMAFE77HQolaQTZvXPyRY0dw4q9ObUNnLRcjBp3Pn4mE3ZzwxrXwLNCFqsYnunZmHYvm2L8Ehc2ES1ri/l7zfuxhzm5uJHKPZqA3k/Z9nm15pPnbXP777yJ4lohehBawnsJ9niXNOa26GvNBUeHAbGvrRlVM80X4ZF8MwVp3Ygu7wh/c96sTzD+gv91h0788i+BygCzT35A3ltQm+WP0Bs2agXYy8uh2meduUaPDZ2Lm/4XEof+A4lU2FLCVIcqheSrg103y0C9M0lbxm/mOwdJDZ7TsYICHyde6/PhQBHQn3NwOIcsgPgyF9xiW0MFcrS2mN8D4MI55UEh58GoYK740pT2e/X+EGgncSI03fxJpFvVOdjdvMni8j09ykNmDa4h029xY5g3mJsweZu72Pjxbytn8jTpBWczyLCCLKp75AZFn7ycEaUUcb8y9jmyjo6yvfebuyGn+mEgifW6bhHHYsPCHF1BocwbZhAaXxPkGX/ePPPsqFCiIeJRufuGJRM/UDKk6zN1CWiEJIu3A/UWNnHmwxsyzMy8CpaSOkcyMKWO2u/jA2AvjLz7OIiJtFycPJdDGaUzPiQt+xdit10KRdvwWiestA8pJXvCI1qPNW2Y6a7MbGgZyAUnMMX7+R1jMd9mMg/9H6JX8mfkBbItqZ35hi3w3HyGSWps/0jbMLtAtTmH+mPZidjKQnvy7xYh6xzzywQ9km3n1+VhPYSax1SG1DONv/z4tawwrlK5SVP2OhiAIF8lyiZTN6fM6jC++ir8XX3yVfJG/N7BN/siO556e8/TAp+efFugEAhaFNSZ1Xz21ePFTzw6SFL/4qb7nRanPZHEEkp9IDTMVzVS9eesNpuKb6/9XX+YfaBycyJxLPs0Xmbdajrz64qzffbV4cZc19pVKl8mhKMxJsfWGR97GzyM9/fzTTz8vZ1H9gFmg9A1SfaQOzIn5+Qbq540/zHmaPG2A09NPa1gsDpP0Xy1+9qnBkp596qseZ4bBTtsCfBXJ4kmlLO1PLbV9/9vcCszPNpv4TX79ek87JzG7yMcbr/4OD237yPa2n/2bmMc217FUr38++dE2Md4JQJYkyx5P3CKTD8am57CllFbAYun0Yg5HSv6kUg5LyhGjYnE6RYmRBAP5p1IJdNrm7oNCBqQUhzUYEupGo+f1NCdgsjaXoEZZbClbJ2FpUc9MdXMo1Db+UWKywfznUOYN8wHmPJzLtI75OA7jHPxn9jVfZr5GygYU9fho89R2Nim2ToxbkgTeY2fqmXYmbd3z1PWlOo6GJWbx8J8gisMzP7jbnw9hliXm8MQcNouna+ceKM/AJwElQQfCJHyhKQZNEkgFfc0L6IFDqcAM7dR2/+xCmwk4WLy70yQhkDcnvZ5D6Ts9ue8HORqOlrkLHtny3O6X9iHMdv/SgT0TtP9vmKQ8jsp1sJSrl+8N6R4GNP3LYNbcFw5o3QzAw8QaHmfhADynm48YYPB1M1cPnvYvg1mI1AP9Pj9YV4/gN4QdzeDBbK8klAGn2YfHYI+gYfrlloQC/jVooCfF1Wmk1ODBbE9y3vbcAW6Xfxme1fw7QpYjFlPUwkEkqrcoD9oisqtt0gMOaOoEs9SHN8TN4/VeZYlHiV1dKV5vNHAPP+9AI4vi9XyI+fCNurdHf0PAHpCn8Tg95lm9lsfT9L5hKBW7gyZhi1kx7O7jj0dBx7RiHXsg24VpvU4wK75E68FuvU1i6Bw/uUYZeP3Sc1RyMWMyICgi5RWzabZmQJ7WC8yys2p0FK+3zcL5RMXmadu9WsPiCMXdxyybYHaLy6DCrKCY7sFb93At8LTihSEadu9rt80tqRwTSztwPEtl0hrxIMUsJbnhwus9l1DfcaARblO1rZto7YU9aHFglk25uEgpXfu3a71xP291wrOaYlOfRj08Deu7EIRj6v6b20nZKk087cDxrIbHFd9XsneSq74f6gXPsjZu0VK9B+1CraaDZmWzxAt70CkSzHJcXMSDCLMsQbGJbehDq7AozcIQnrhfZAPqLFcygHITZeBqDAPCHr3ALOfAOqoPw56FWqm4fdkA5LKwB7IBkWcZnh24/s+Mxk54liqmw/rAkWKOlrMwRNxPcuF4E1swML01qReKR3PEgj68r92+tBeYpU6vZoHhepsWilkdiOrQtC7swX2ZMZjLOvEAcom5zJ1gVlLM7W29MNdhdLowRNrRILWHt86hGSuQHl7V29PZrL4VvfvP7QVmOadX96ULWIjxW0fXs7/r6Eg7JQK8eZTL6kE1BgPPNpsAtpPhbux6gtluVFKvMOvSl3bpb8yiU+oB0LtRJV2e0gnPsjAG60vqT8yynvBsa1M84dnWunhwq9jUl/eZ05+Y5TzBbGvrnF7dut3zrX9nnqUkxXTPa6TNFf2J2Sc826ZiT7v0pTPub8wOFnmWreFotJhTYPVB18WWSgULQ1RUb6aw2zRQ8+aA8SxbI9ZQLC1NScXSPmhNHi5B+3t6Ks9q2GLtxtWYX2n/dp3vFbDZYkwVU+KOru7RGIylk4oFq1frWIYeKBs6z2D3jnYkz2o0GkMxJoN6jzgtB/rZyxpJ/8wpLBg4vYEYjh9imtLqBsLKrmeYFWvEEpbk9LowQUeo67TVKanEVbNQ4irpSI3XI8xyDCtycj4pzsnZIun0qf1+sH3MasQcViNtMpm42Opl4klWr15lzHKh+tKR3X/2gPGsRsyDIELT3EZa0wfN/f2Md7HRQ8yKNcorLtcyXK6oe8VtOk2WyyqXKy4dzXb1CLNaXg2qiUsXzOxVXrqomE4Ot49ZSifWLuQWIEvk0l6ZAnMkvD/RBQV0Y4fKwE5y9dChgZNnKR07TI+mKODeINaPHbXuQzns5Y6eYlYsNeKFor/rHbXpVHSjiS7Y11Fme4RZvVRbxC0oKMjRP+pKeiC7HWCWJ6W2ALJ0SC8Bi6dIJVqaS9OftPggP/DgHv4cMJ6leBrKlcAipF/6h66K2TPMwv2ZdRB5a9zSUe/e6fMogWs2Ok+TviNi7BFmYW5gIC83u113104z0reD7WOWuedCLm063fu7a3UCGq/hRlWvpYs2zx44nmUe+h16mJf1bZ7/yDZ7hlnARGoAZk29MxfSZKr+1IjLtaoOytMjzGrEKg5ImyvovfzYQTa62N0JZreY6Mt90BtoxZKQRu4nbH2vhgsPZnvAeJZ58Bbwh1T3YB4exe+eYVbMkopZeJ9oSa+6Y0EYTxXSaCru0D60R5gVaHiCkMYCI6IVPIqa6fienWBWwuXe6APXUFLtn7jcKwJES+h7GmCepRbSdEf9Z98L0/YOPcMs4nlIOUYuLRT3CiaUVqNCm+wLa5uDtts9wizFkwj+xC3IkQxMTbXmsxPMsrlcqneiPnN7sZQN4UDLZveKElpzaN4aWJ5lbzGFsPqlf3iwHA/+7hlmYSkoFn/ApbMk7VsTPnj3B34jEoYmjC7WszvqQnqEWY1Gq1OFGFV9csB6IIfd+tkJZqE5gHlwr5OEx6YKTCxx/2icB1A/ixLrBKYicR/e1+5XWs8wy6NAkTzjQklYr4iAp4ElO72aZehoTr5HmOWJxWxBUQ6i0g1ITbXWaSeYpbIut8TJaj2/+1vE8yKkGJ4XHVVQ92+FMweWZylJSL+o6LouYs8wy9xPOzOrL/5gIXEdirOcHmHWXDgDm0QEG9DUCWZ5uit9mQ9AADF20T6tVvcvKM9KpVfAIgPREL3ALKXTYeKj15k7AOPBji7uBWZZGnbH70BHz+nb/k4wK+bpEZCv14ni8Sg2dDIdVlCP7jywPCvWaDuelO9Rvrs6uTeYFfPEmt4LbTyNtMPXsReYRag4OEUOaOoEs2yOtg+vM95m+Hei6fulkx1gvQEbljKG/nnZumjN3mCW4iH8Zxf37fgwiKTDzrw3mMUbMCA9UmuJOsFsH3tHMAFPCtD3Ti3TmkPz1sDyrAZlH5iW6AVmkTNDH1zjeGDpB2u35XcvMMvG3FyH92u5b/9+d4JZZKYv7caCYIFQvbDu6occDzDPwlyPBPMdgNQLzEIJ11GEgu5kGLERsIZB+6kXmDUgwHNHt2v/IX3e2wazKh07U6ujxCzXTJVUoHJlYSZIBZlUT7FdBZlSHSzZpB1N+rXkQ8qSQtPM1oRRmWwSkpunl0r10BqxWBpow9lS+It2ONndco8Hv2GoohFXcsVaxDl5ZElnkFL6TOSWInGQ9TCzMOgpiZjKlOqpTD3qIFP/KJ7NE1PahRrUVGfdKyVAzjJ1mFCEw6wEC0vwVBIABRWMcMhSLMagFXeSOZ2ERwkotiAzMxMqcxK1gZK4MoGnWSyJHn9SCc+srOKxJQslPF4Y1dnEVqY0U6rNlKrCKD2PzHHqBRIVW8LG3fUqiUAwgp0pde3DKKg7ldwGs2iqTDFpMATZQtAjFaVlC3SZWhablSlR4T/K1nGv0vIsV4kEVcHjuGL8hjqV6PUsHhvB0CV6hA7XCHCwx1ZiaFIVdRYGrY+Q+SR4BCo9k9KS90yPsNd6FcKLZ3L02kxXHTnasRDYUvTefPPQFX1HaqpTzLJUrgR0UlcmMj8ckKUs5E5n4NxhueJV4/A6Q4lKQgl0enAJmoXHY2OUweJJ8G5SUraBNLlEj8Eyk3dKy/sOLwQLgdY6LAub5/rhb75//S0qU8Ai75HOIPnoaQ+2TqDisD98+umP9GyBtCUqe4c36eOBNpjVSDg/zSbpCxYaCRZEMM3Szf5CqhIINHrtf83+VA/m6eJxmbq3kb5U67FuADiWx9KHvf13IEAqZf/9y7ffntGbTk2KUbIhhzaweI9uVJSZ+dEPyz/+ePk7OkBDJcB6AgL9Oz9oMvU6aeYP2D8X8Qu7KHrvDmv0qu90bHGnk4WZqv/9Fs3yLVYgEMDJFfwqeWP2T1jNQUextdrZX3DYvMyOn27gzV+O9JmAJ5EgEj4F3li+HKdDKvmoZPnyukwxL9PcrBIpayGWruiUZjnU1q3ff79162tgb8ABQexZT2/9kKVFT/A6OfAbiY6jfzRVdb+IbTALMv109hevbpo9myWAQZ5WK9AKpLO/0GklukyBYPa3X6CH7EI2ZUv//vbbFQCtRI/3nw2sSgRvf4ma5eg9sHfrl/pe2FqyxQaKnUNLtVQfLHbuF7jdDbZU/87yd77K/3h5JmSETIzKJSzeZz8INBQEnY+Xv/TD8o+kXb2u7d64q53gQPFCgapTJYVUpQWPALV/1AuIw49UIua9OvsvOhZPn0lx0md/IdB35ragpz7++LMfli836ASQCkCvEvbHHxNxgcP+YfkPP3xcRwkyzWSgQ1xRkFVYp6MY7dbv2eynt36vgrjCwVujlzy/9S09T5eZ+v33carvt6rROw0cZln6n2Z/IWFTm/4okN7cpPr0i5+0FG/2twLDp59qVbM//fZTvJpdSdtPv/21JEz15Zdx1IdqlvxDHmzngFmO/EMO9km0WyEd99iMWsCRhGT/XBASUmOu2q5w0JvjlHT5ch1lmPeVjj33Hd5XP6yXSKl3fuBI3/mMrf9bpvij5Ysh1Pbmxl1co/okJGRVSEixfYdmK7iBPnP2F3qK9+0XEslPfxH89BcIKn+c/RMl+Oknzv+SbhHvdCdcwnrq42cFmr/9sJ6n+yhT+rePIBB/vJzifPiRQfXOD5Tg4+VAvLlim/Oi69ShSrJ169cSCEo6FsO33xv0z2/9UPI9dvIs9bpqbEMc7KLUfTzchmeByD+SLuh/9VLVp7Nnv3Fz9hcUZ/YXf5z9qUaHN/rbTyEKdZEEKggAf/86AQI6RITv3976ISV9++9vvf3lhxyWOEzy9dtssipKFzd58DAaZFUBcRzonQHeg7dr97ee8xUkgB/+ptOyPvv443/MXf5DJOezzzKXfwYTHz346G+Zj0aeZV+BOWsB90qnAe00OgDz059Yenbm7G/xN/svkhe//Yk1ezab88e/SGZ/we48yqnr8o8/K1HzMgUfLf9s+Q8fL2cbPl6ue2n5O2RxoqfmfjwXo0yzBbmLqRF/LobOVSZPQzLYuvXDTNXWrR6s17dulgKz3299XiJR8djfv/28hJPZmaTSbu33cGcbzGJwyfsCoJ39qZb6dParHMHs2XrWbOxR6uMwGvni027069IPiTyb/GFY5ttvf03999t/D2O9/fcvt36oElAC9odffqnDS9gl8h8oglgnLi6AxwPdPx4PD9zd/BMjrq8YeZYHIeHZzDtzP35W+tlnX318h4MW1X+8/G/6R2NOq2OtQsG48FFuN1vNmZN+ysizmHOdPfsn/aezb3LAs6Pxxeax2bO/7RyzegqCwcc/zOVIPvp4+VesuR8LJMs//tvydzIlWADyh4/HZfIsm41cBKuIawqi77I6oW0NJ+E3QO33VObWrXqJ9vvvMyEofL4Z/RJPzN66FXJVJtyTOilN3w+1wSyZN8bD/sLUCzoj1ezZOj3BMJy+BZmqbz9lVrXr/JEGCYvzNbhWpX37bZZE+/ZWSgUMbxUItJywD/GNwz0mLErH06FlTdcoXecP78NRiUCDLuCj5cs/4ny2XJfpCkrKfAfMS4n1Gp1Wr1/+Q5fDz149XWdYXUAX0FSncbszVRK9+CfAVorm0Ov1X3zBeYNQi0APaqO64lk9GFb91Q8o0EfLv1KxVB9/pMOQ7GNX6Kekeq1g+cc8KRRmJIH0ubA/1WIBqA6TBMoBrFH79NZM/datUpbm++85zwPBW4MyDZzv3/6e7QoJfQDHYJR+0xc/QSW7afZuVIsuUzp7NvQGs9Nn/5EjoKSqb7/oxrzyh0oPjoT68u2EsLff1ms1b78tZWPs9bYKesS3tr793zyC2c4opb260qJS/0o30i59CAbY3n3b7ss0vPNOZqZq7sdPsd5ZrmVzPlr+juSz5Z99/JWKUvF0PP3yjx9NQ7CkroDsKo6qs9dRwv7pJ41WfHM2RwLcZuq//ZZg9gu0C4cn6RKzgo/+pncVfPjDcvVHy59i6QXLP0Jpfvh4vUEl1ep4qh+WszGQYuQ1rSu6s1UcLaJbdJhYH239DZaSfGurVLt1q0ojZXj2N5yt30u1ArAspH4dNPQdXt4vB9rwLKWL/WL2Jn3s7NmxkGc/zcRolQN5Fv3QTYgNrG8/ZXfZqxNpAFLAl1v1kGc1Ete3f6OXvP1l2JdfWkokIF5o6vWdqb/bLxGW1WTF0dyznEcXT5qtAkLnfmS5fLkbD1CVuH728d947/yg+urjuXp0o/j/Q4/F8PYL88BedGAF3IJ1lLgzzKri0OOxpTdnSyDDUuz/BXtA10VhG6P2LjHrWgc5gPfRD4RnfzDoJcv10BuEoSOBQuGzTNXyjzPZd8xDDJ4UNLsOWolOTKMkkq1vfw/h4HspZIPvA7ZCZ0DGYJu3flRDxNy3IdiG9bgnfaBSuvrZBrNslXQqhmDog7RSjMEgQ0Gwnf2tGEIUpk8yv/gCZelq/JT65dtf/nfU228LKDIW+/vb/y3BGEzw9db/1iWDb7/8DaXV99wVQyelJLQpC1qerkrT6+OZ0sXoMKGJZbE+w/cPaGb2Z59JIclCLlgOgfArNqS//k86SrKqYJWk84jwEowsPn3jCygP0BQ3f/pi9v9yXp39k+TT2X/h8KCE/EIl6dQaMBLq5Wd/WF7Chujz2d8++5iVCZyiVALx8o+fghQvxWwWk6hM5KV5u8Oiiud8D2RufYsN4ZWMxiRiYJb34fffzyGY3br1ab2A3dVsaYc3796BVszyMrWYAfrpj3+UajDg+pb646sGTCL89BeO4C8/sTGt+9NfeGEIrdJ5Cgv77y+//PJrAdSyW9/6+29YrhzJl/8tkfz97wlf/v3vX/79S7Kualf3ePAJlARR7ldxDTBnevBQv/3WxmFY/dRTmRgpvrNc/+HFjyQctvqDTP1HH+mlYvniv0F07Ewb1ft8UGwX7hZMmHc888ThqCSc//ftt9/exBQClLSQCXjsP376F73+5qfQesV9+qmG6iQmuTQzM7LuB4wnOZkffvwV6Bbz8O+8o1c99dnfVPqvfvjhb9r7K/RIDVkml84yQorJMkgkvExxJkcK2cBg0EJLwNZkZmKqE+jRY2oBIesHTjbQGyACaAUCFk8l/vRbLImuYQkEHPyDgSRsDrA4NUZVXbROZhgmb4FYveDttzH7LID1ggQpMwzbzHrGmDfs4hYPHSYTHJpPGmFb3BXLP3Rpt3ewVFJJJkYkWogFy9mYvAVmMzFIEejvsNmZaAsyuf8IEubHtasQg6tTpbWWpyJ2ENC98NDlsUnO2AK8RXq9ARGaMjGN29kYgZgCZMJmg0VBntXoiR4EYicW2cVcNUaXehXuZZZMpNq4VV3au0TC+CJT5arnQHzVsDJh9iDQsyWgE0bxzhhmPJKaalP5rTwLAwOJHnNeFNgVPMvTYg6Iw6zvgOrC6jwUFm3vtGqZu1Ja6AYkEj10XYC6DhUL5yMK1I2l3SlMdbNUPRYMmSpwzTGAbdtkvH83tZRe6grbAqmA/dlyTFa7gj6gDkWLoKvL1AmkekyoP4KESpVeoRAWrZNhDxqBx5GqCCogG0AQyCTT4phch+YYsz5AnIrVSYgOOG0RVFEqCRmDCXAlmJEF4LK1mSpMV6o4OsyQkQRd9LrOzGOYkzKhvYWpASeT8/1mvRZWT6BpTBqyMzWwZiCTExDkHq2qq+3aoSiWlIdXmgNs/e8bevAOpts5AjG0BtB/sCRidOxdoQaykYAlgElU5m++FGhViDCHGWkBzMQkQB50BjyYK/f4NUTEfo4WAoK2q36LqdRefbDgtgYxTIXp0FhZK4EAACAASURBVL89q9dJYNkD0xEOGluA7gY0yxP0uH/oTkYoDSAEKuhUNpCoUIeZeizwAOUNLxOT4ugHYLME1SToBYoNaLA6fhjUALgcyM786LOvQLm8TJUAPagkU6VVEc5VqTKbhynoTFldzmHxWBpi7pQJE7NMCYxvpBxoH2BOwjEvj4634dFoBdsUsA3PttkrZV68vtjnCIgqtj9T/96t45xBBur44GM80pyrPmWOajsrAxmDFKdPN3w89dE+ZvsjLz2m0/546JN7/AfUwKPD7H9A5T0p4mOpgSeYfSzV/uShfaiBJ5jtQ+U9ufSx1MATzD6Wan/y0D7UwBPM9qHynlzaZQ0QX7d+UfkQzW/z055gtstqf3JCH2oAPjz9pFXHbZr1yE8w24cGeXJplzWg4/H6xwIcJNsC/ieY7bLan5zQhxrABL6k36yLml1cnmC2Dw3y5NIua0Csy8o50OVZ3TgBQnGYpVkyHlyYRWwKaU1lRkZa0UZKfyFNxL6QoSQWJFg/kCOmEEPCgDW7WAYYLWg5GqkGXlQt/UU3Sv2YT4E9yb6ijLSMtIN6KiuDkhalsTQUYtnpYI0EexcVzNZgZgKrHMQKI0XFv0edYzHnRk7l+PFF1npJ5VEBVZkj0CIehwEhIXU6tsaAfHA4Bh4iXcBXFyYFaIOeBCTmUTyDJFuYVPkJ1gnRihGHiG3JYgK4YQFHVw1xvherwsQsSqXhwa5ORcx1eDCr1Gp5AledLsmI6zUaWGlJYAcqhjlQzlGzWcXgwizsmwDTjVmrj2ZweFduKHUX0pQcEu8N4jdPjOAIUth7wNiGRwIh8WC507lB1KNu857dXyooSruSdbpoY2pY1mmtNKOSw1ZlIqYAzKCw9gSMBDH1z2ZrYfeCKDYw24WHYM8e0OOztaycyisuB47e0AuKiihqwXgOwoTi3eJJeDo9DJ3E8FPTW1JiNgKEh7HDSOikHugAwCvSG9wslKmo0cUVUbFwNy1CaPEAUiluKY2VaiUIJ6ETS1SIjIWlRCgeTytFGFWVq0GjFf6sIfFHJFKtWEXhzVHx0irNmoPBhVkYh4qLbkh0qisuHJ7LhVgxeFYgyLqwz0Ug1uzbormwcTiMrFhZN1xmcLQsi9Onh0seofNCjzHQ6QU8ipOWBkPMg+vk2oMbxbyMDMQhm3njdJjWwNq4b9mBC1iylDp44cY+OGRxVmw8zemnqP6dZIrSHE3DYRcXlXTjDZVgQRrc01xunJZIxRdu8LIObNTw9NoVGw9cYOm1rvuKbth1YX/2wJPAoFR2AQlCzC4i8d6VGSEuMMeWcNKyL8kr/6QKK+IUF18RK7NDYDcYprqSlC0XSOJyNMuSspUGiYvRmBYppTJ27dKSFYgF2dnao5VQeCENLswaOAbOgYzTShAPpd+YJmdvPKrkaCohK1iKqY2nL2DjA7ZuY0ZGZYZAe/BGUVrGxn8ZzMLquijjueEC8IaYyAYZRznUlYyMjBsfsFlFG4uKMlxgXpyGHVc47ElpGUWnlVLDAyjo759azoLKfQexxoJWMn48hzM+h0VtTFswPo2jvzH+x7SrOVd4Us3V8QvO7tNxisZX5mx0RRSb7ucBRqfUNdoSxqzoQHg61s9cI3eXq4Z9pcDI/Sc3W5wVUmwsoGd+ZyxIUnGkxSaj0HiNJTUeMBq5wixtWiPNzdK4FBi/yz7Ika4WGo3G4gxzxzO4MAvZVco7nZFxtOgCz3DhqJLIs2EZF3hil7RJrBsZNQK3jBtUTcY+wbrTNZKMDAFnY0ZYD3qr7tf3IzgTZq8J+9KKjma4CFhbIPqkZVCajNMqdlqGSpJRxGLduBGnOX1DIpixMcs17UeJAOJRJ5bc/ZJBFlt+Y/z4BUUHDarx41n4L1EuuMDhVKqpG+NdKNWBA2GSA0USaviBLVkL1glYlUVYNaf7D9YJEIgsy8Q1Gk9D3KCMG6U8i59Xq4q5erZKXZCkyypI0/OM2SotVbBLtdq4gq3JovXan3fxWNQ3RnGm0ShV7cKKV5JdtFZS8FcVS2lM0zFPN2NWqgf7hiH8WBibEiP8IQ9BulgY5UjEWBUBixZ3P6N9O1OFMRVbOvMAWpbiAa+sjfh/1EUZOyNjhfj0Abg6ZNxgZ6UdpCjkNy1DWbM6Q/SoG7ZvJWpzNRvxCVegj0g7CJ5lsTMyJJMyLtSk3ijiCTIyxCx0KaKMKxAeWaysjCylMqMIbk2PNiFCneDK6ZzxRVLq6lUOtSBN4zLepUZ59Ir4xlU7HuvGAnlNzgWJFibiGyvfksvTxnM6C33wYF4hqGIcsnEXgiYYJeLTJpVUz7lWzDPSUgTLA2YP/hNDspAiiiOlQyTFxWyKp8s+zTJuxNhMyKWkQqGKYzRq9aotJlcVvU6lkhTntJVnWTS4V/gdgkMgliWcasRidGAcAxtrLUH67sG79WC+e/gbLabZV8M2iPdlZLH2pcmpC0djORk3Tl/YuPGg6sZpzAOmndZmHV1G1j2XHE07feHCBblZxunhgx7D6VKe6MI+HSJqHj0t3pLGkWakcWoyXkYJLqiAWZYAr2hNmouAjQGQC0p248JGyaOWDTQHT1+Bz9PVBZS4spJHXR3PunK16PSNjVn6G0drALdKpTxnH8aGlOrG1Rsbb5y+AZm8+wnhLDWIQQqXqJpsI+satxGe6AXZYlqI3lRbkM3KMmL0krQM4VoaszlJBSbE0+FWsoUrECDXCMwahZkcrFpOErVCCN9g3YqjbTErpjPEmGUrLkDfpIUbDEurRZ9rYAsQmhcVN2CgpaDRKrqCUMWri1ZINmaIKPAslbEF4WslKunpAyyKU3lakJXholJemMFLO8BmhyGyc/dr8fGeqdFlFAGzIggEWzIwIMvg2GXs0yMWC1uF8RjvQmVNatENtMK+rJkZW4jn5yNfR5aSny3CWH38UYqVs4DDGj/ekDV+i1gD7dPpq0oO53QleHYjJ0yyccuFyuE6g05HArx2O4mxHu61YqlBpeXITSsyuFtWZG3J+sDVZITah4fVv7OEQGfSCi1Lyk2isjeuWLFiy0F7tjFLx6GENMX52SgW0CErXA5mZek+EEIDJ8mqNL8yZtlAw61k5tgqQ/QIbJyVkwZtWBZPp7mTBWWSJGvA/C8giIjXHc24cePoy2zDxqMiIhvwrhzF4GufVnDgBkbdGTcgH2TcyEjjUfvSblw4WsQasBeq243V/oksLXUjI2Nj0dEbqZwVaRzW0QwtBmUXLlRuZHHSjrJRVEtOTVrG6crTllpCtBkXEG7z0SYDlXZ0/IHxOTcoCcZfrLMLpJqjORdOV7pqblyNFLMuLFCyDlaOP5BTlBB2dPyFA5X7Wu1UupExAxzRjDQP2lXtFqNkRYFcpYkrvmbYZUKI2zg6m7XCiNuFbIGfPH4cyCZiaPYVvXAFfF6BWfAspTFyLbRhp40caeN4MSX+ZIEZiGbMUtxKsvyv/lq2RKv7JwgZC+9yiyTaYloi5siNj8R9r/1SiykdGYPdWE3x9qXVsC8U1eglNw6MzwijoDdgseOKNrLZ626kFe1jSzX7Xj56GoPs9m80+PZKtQn7Mo5WFsml2qwiMSetSCtYcSPj6D4lL6yoSKNHUcWSG5hzkLOlrhuxX9I/K1h2UhFizcEblZWVGzkC6fjxYk1ODpt9pWjB0Y1SzsacGrb4Rk4NR1KUk3OUVH7O1fFXWAiZ2MntHjiE9aD0aQXFIijSjJdUqqQkAW8L7aK5Qv9JIi2mkyjCs6zsFaCpgiSNklssEVwr0EiNB+GCTHgWsizvmmmFVmCkVRJa6Mq7QWeYvZPNmOU1XluxJeuAEItpa7NzdDqdcYXEaNQB6wfYmbu2DCyVkVh3xOmYJAaQZOVZUlf40RLjgIk2wMKb2YO+irnh4/8gJWmxdYIkAIWQuQyYWSCuyeaEYBA9gUc/lgouuiSH9xPW/2Jy/Kud9492tSFlZ2NJaSMGT1L2ZWOBMUePCa1sYfYVOptaYWRBKZClCeMZd2lZLklcU/YVLce4QqpiGY1i6oqQLoJewcQt1mOEldNYcG1FmhmIZswaEN0VSbhLp6JytNA+JKWxkmipq+naLkprhJT8JD2pgV7VAGa6sg6y2SpAnq07qMPsrxZEQ2m4xZCbMemg0YVJEfQCU8O8rCzEtRe76vBKu0o4Uh07C6EUDFlZrpgg0+gPZiFaQVueNWAMpr1iLOZgBKa7lm2k6TTVBwV6gVFiyiqmNY96/Nqr2nhy0b9EDSD2AXRRRLFr4GihPIV+VkWxNhqVcViiArPUpM8xIO6Fhq3TY+YPYiv5EBhgfYEI58x8BJQAmGKCJQamSUlqlmdNlRoOe2NBmkan2cg1JlUmpRlURnnWJQldafzuX2eq6V+iFf+jMklBaQo8wrxGSoVpNFgFSWk0ZhsLbsDkRipmQa0JMwTE+iLBhjhYMYMNgyh8cPABYxI2hwdDRmiGMJ6DHULz0phmzHLoSkRR0RsLtNotXJ0rm/dzGku8pThJEGs0mop6okj+j2qQJ4XtsgYQ+AzONRi7YR1ajRbxq2BagBhuEAWgQTVghQ6M1MC1UjEmBbQSDaJkwZZGqtEQlwRYluEUUDRECANmDAzN/b0ZswJuGkQK3r6Cs7wtXGIYxz2KoFVGk6V0Fy1UDuwQrMtqeHLCv1ANqEg8LdiHIW4VFumFClWDyUwVD8sjwgITRkECYsKACPsaHXp+YqcHhJs/YHVKBqgk4BVZGk4qBjGbB4LNsgF4VsNT8ZQFIbyNXFOB8XQ2BAJTIyWWG4sQLu9fRp/0L9Sa/ZtVspo2JEesG2hu1/69e7fuBsTAAMugYWnaTPOIDQJ0+bAt/BXxwST6V7/J/WFui0iGHSYC5OaLmjHLBmApVxZ8d/BWwO7RgrFTlXB0pCYGeg3eDvP95EAnNUBAwMNCoZ2c8mgPgQo1CF2Jnr1NHgzo/CkYAv8qPiDFlkDv/0CCcRkJRNhRgpk4zMqYo2bMgoe1EHxhbSA1gLQx1kMoQp4Gpr8QFMDRHd3oyf7BVANirH6nedQBizsuMI9MSWrDdBBWW0/S8ljF2VdUUAe04VA2+8CV1lOat7DQLK8ToLF5aWm/0huAlLFYgUEMU0CxRkCUaTytmKWD1S50Y5JH7+TxUAGe7OhhDWDUreEYJNdCGmFr8ngSl+bS2Z/cEGgw7rqf2KcLrmhMQjHsyO/vgzV7dtrD4uauxs7ipbINxn82TwyaeRaGJgguiyGaBupd0CuMDyisiSJlabHuNZyBWh/3ZGtw1gClhc3oQaz9R5b4elyJscIKKTKoWutIk81V8bIbNXB5a90p1WdffQhT4mxTZ5iV8oTCZnsoM2Zbb2feYhahpti6xyfQP5ijJ787rAHMIUF804Vdg6lf5TqlpfVjSgke6hkjNl6iC0z/xGLSGj2TYX0aV+5KC8O0mMOCklW6Zdc/jbESQVKa/kC2QWo4kK3VidPgoBDGW2YsyD4gkHxiNLropNLs4l3G1WJVpdB4WqVX6dKM/0z72di81l77mMUo1ABHHrwdHdbUkwODpQagAsJaTdrLXO6qt0ZYuqkniR5PiotVuoo8Un80FnDTxIggztSPRJWUnVPwJw5CkRvYYZTEZAr5+bssTsh4fY5JL5amcXW6bG5IdsHPuhVckzGHdYWbnUT/1V5Mh5joLENSQVIIV8fWxZr+aaSNwmYbvvYxC7AS5UmPl/kcLM34H5UPKgxinXoht1HkJqoJU1rYPZ5krb4zwmJEpDrWWr6LS/MYyxoORzBjVwEXpj9YzgFDJV5SBlStQiMvZLwhjc4U6ytpA7ugUqf/MUkjjuEaOMVcDKA20hopTQuk0o1CLPGgFCqXmSwFVBhtbF5brn3MwjtBnCUWuK54wrODH/6wOIFNH73wa7nI/k6kXORm91j+RlhaiERyZaQyVe5homEczNQcS0gXc/dJtxi0OqmYJzfqdZrMFRJtdoY0Dc5f+spGjpg2CsJ4Ej0vhJsJBwWypJ5whapAyAoL23UNUxA8+kClSe8q0QqNruBRpPYxi85GS2dJK7MfkpSZi558DKYawAwRZx/dKIqzG2EnskyNtXxMycJthDLMMtLCLTU2oZheaHZm27WLxbbkJnGFPLL+SxaxxxYjSEVSpa6SzhRoK+GfqCyGvfYuipdUwNMaTULiYbuFoo2YFcuGwxd+jw+hdQjUkS0kagIkC44WgUJgj4D1ehD3ACZgWJoWy9tKNPQWfdxMxP/QSLGEC056At/BBNQ2edG6UpKFphylvSjh8UgFrU8d0byZGkvTWiypTfGMqylXlRGOXiodS0cdpF3hosnRakNydJWNAldBGheRc+Ae97NJIkni6jhGIUclxpyAnjbCxyvpR4SvQOiZYq7AVasDZs3cbUEJeMqipL/egAtEjgSutjk50HXJsy9owLPr4C2kW30t5JIrnAvb6ITbVNiTzcdeA5gq/a6xSGQpcpW3ouexbk1KVYfQOaB/DmfXLrarfjW34DT8CnkGQ/ZGg4onpDlJOewiWqxjCbkCCe1iMOiSVrBCaLGkmGbxDOtoJY8rpDjsG0I7TpzhnzfkP9dwqDBwtXlcZ0FJJD/TxsYCqS6rkS3msU3wpIFmwRTTuIJTma2SxJlMRtM1neGJcddjB2cHGaB0EhPtmiCyl9s/VqS2efgk9brGGB5ZuzKrsVhFeJaLSEo6jm6j0UWlKsjWZWdYfsC9wZYYuQLKlK2iNnJ14hCuJHaGsBjBZ7hSLRdOYFpeQYhU+9dsDq84O06a1WjUNWNWZSguplzFxddUK0xYYY3iwqWchtP5n1Yd5EGe3dioVFFgaoPWLP92UG9Pdj++GkDcMrpAJAdiLdvA5nFuTkqQK8/SaTBpodhXdhmFLnrtLgP6abFKui/7u++UKnFxBmasfjbumpmt4bFzhMbLq2EiU/xdsYHzV+PPaZmuhuxdYo5Ec+ea8Jtild7VkGM0/rV4l9lNgWMhlsxUSRBzLlubRSP8FwcAh+O5Ssyht7Aqk1i7TBSlAm1jYdXH1ypPntxZDfBUItpob2Evshc9TqC2fbbILcGFvsyGEw3CKcJJQeWKLhyzCggECcsAlQ4L5PJg0kKpBDos/KmDyKqBoQIboWDgRsNBODs9xlUGzL9KeAgbYoAtDFkftWW5ZQtKxd4l5BqF2ZwVXBUMazBgOxoiBYpNK8Cz8NYFZtmVNKITPlBvsKmBazesaRDgUQPD3gcOD9xPBBDRCGDl07snijG5guhgKg3sg2DH0cu79O7ZzVcRA33MbbLARBRP0kwm3b+jQPpc46W2iHn82/aiSCW98GF7w+4X6sEzW5w7yX4LlmSfyZiWWRnCW0HDHEYHewZMqGVqBYjCmBHCETZ6YFHTSi6v2Ua89V7wgoAJuYGl0ny45UDa2ZzxjytluFhqMuF0xOtxa5PCkEJwNBghyNcdWDAeHtGPIS04Ov6qy2rUMzESbXE5bq3pLrYo6jT3qvXjB2rbHIhGWHJNWIz3kQiUFnq9cQtbK04KydxCU6wwFVcoZjVekbpqG1cIKpOkl2gdpcoUci04D0UYJ648Wmp1Y2PxxnUf2j+mSW5r64QLq3+/il7BRNbtonXbO4w4CVKJYRe96vfPXZmUYC8a+HJAQ5Ugqnnu9MJGI0LoaJnhdns57WgfRZ2lX24LmMe/LXK9I6ILwGiPBrPQLxgvVXJDQgS6a/SuT6DCxSwFfe1yAZ2lS8s2aP9E76rMFmY9bP8ODzPEkKB/b2mXYB0bFxs74jElkZ3azU20i86ieuVOgYgJklX0Ork6UmktsrCwewylsBO52okMSnXkst+v2odoUx2Bs4P9FFVJvzxoRFnmhbEQyUdwCzgGCI2PIFmo4iSIlbCRJ5RrxZBrL/1s1LDsixuNF4xZhrRdmjBBEqKFzsTE20MPR0SMYjrLTjlJqZbbWVtbQkP4WP4S3CJH2NfsW1X0UA67s0Ojkqat2jcJyLfGxGdk5GMoQiTSHaVSHqfGPJDA4+Ga7rwclDhn0PHsiBEimobY1XnOe3mUzN2aHcfbvt7NxjHN4ypWu/GFKElmRjHRCE56/H2RnZ1lpDzkAsK1QfPR7QSVM1yIdHR2WAtLtczjPJYSWUAmVVpwFxBfvp7wE0UBsy0leCw5f+ihsSLLBJomDSGlJCxE3ZBowyRiAYul0bIx4MWcKgVLLwkcbqBL4PCkOsy+Eu8bA4AHFQLCCMGEiwWrQng54mwdD0s8sO+vjte+vUG3ml2wr7FG/VB2H9MOkShSvmoLxVO1sTfuqhRiHjov8cGFB90GizJ+RKr6MheLf/SInxDUcLDxrLXI0sKMWShKNXCsAf4QvFDCY2lVcAhniocpVmkYVsWA160WERclZECPITH+IwimZgQJN4g1NAiqxbAzgCCq4cSZW7T3mOVp6Qty5WOC6EOPFdXILSoxmcdp49fRJWaJ+VqGSZ5gP3iKYSdatwuj3Z6MXShq/KDj2UhRM2bRY2B5IUwuwNEwaQWF6N1iKHkQ8ZpYyoglUPtj8KzVGGDmrZMaWFqWimfgIS4tW6eDQyTQDXxLEa8WJIvNFhuZrlq2o+PaFZfVCYNl5gUGTXYieUyNJKwHsgFBhm7VKmWC/HHZnD706tnZyy0bs5g4FR3V+0P7BzXPkqkDMT7IWi3ZK8LgIMNj6RGAgwXnXITeVcHWkFjXang6zDmEIQ4CcUlEqG4eZvfAKCxOmFaq4uGEOMrQ4kzbe551bUxIuC8IPlz5A7wHwz+RctJ3WoQs6UEyiCUL5erYGtcBzm2Hj4tzs1R+sgoxrHpAtINRnr3PsxqxwLhLj4UEdkkxwk9Lg9lhFkciLKCzBQJBZY6Q/kB7zWgyZe9ja42fXIYzAjzGEQSRzt4Hhs7BaRsNYWFJ2F/Dw1JNZjG/95i9wrWPfPzWby2tLxoht4hNML2F17bbicVj62qKlQbRoJENJqntlIaXaRBMtwuBubPBLM+yWSpTNlslzcmWhAhDDhTR3KSD4l3G4mKsUcPO2SWElqrAWHkNKy7w6CTjLiO9T6tKKiiuNJmwAgi3uBJBl9k/Gosrk4yQIxDklSQLMeZdWBwVB7OfZEYIAT4gRJBVPwyIGUoUBmQGTCtlgZrvJ3A1W7wwRm5vMZiGq7B4XnVZ14PWpthxvOIPE+SWokEjG4gw4BZdprBe3/3K7nJjUMuzGPqbstEmldkcdvYKCfGr0RhNWGiMoj/RpwlBncU/orA5CJJsoqVxiAiu1XJv6OB4USOg9+m1qpxdHOM+ncT1T2pE9W6WZxFPEfoEShuXpcV8NwLUsTAVQ7ziSOA6opXFGoFh4rAVbQkMeGdzVv1ePkL0WJVDLRx7/3tEtvHhOeaO21zDZruGTLIXWUAYHiRphMjOMqGYx5P0YMmaQc2z0F01ZoMF0+Dyko2w80YhGyYtGqwWavpGPz6EyszU8LQCbU6BhGcSYpyVJWQfNGJhG4M2bsU/tbCnWWGkdhkviQ1hujCYdzONaaHjSYhBDQcekAAodGdSRD6AqyMCdDARDxB122DgZQkFbTpdLMnKZtEZcXK3QTPgZjAnulTQE6MDyP6GVcwcwqDBLCmG6OWsME1bbXnHbx1zZFDLszwxiw6BqVZaCIsTskJAmTGbnYS/XVRlNk+jZ5loYXaxSashVgOG4UJeVhIHseg4rvuMMSHZSSG7WKoiOOFmb0GVgFWRLMhKxwhKZ4g7SOIqgnKxUg1ifSJSOlYkFXNUDONyVhh/hVnYc7EaM2LtRKmDhJ/M2VAuoJvD4zBl6+pDx6LYBTA6BdEOpmJEvryFI9F3lfnW44OaZxGRkw6B7VxGNocCzyLqPJtqNMISUCoRaCqTBNLM4n+eFgvSGnVY7wv2bVtgCvsz1F0aVw029ToJWUZJy75yiZsNlZdZYrJguW7Mzq7Rsl3S9GJO2K7sK5IcKVU0qSj7WhY0ubyiT5KKYeyYZRTo2tQSjyWVNB61l6sHVWPbKc9ydW26g9YMt78llVAGrqVlgqXSctAItKBZu5fXsViZ7We5vb2DW56VsmgjxQkzhog5IVlY+Uuoo5K4EhWgDJ5N4ujZwi16HRa648DbAIS5QgjHhUo9y9X4AY9bzIG4+4nSKFfpxT8LEQG0mWc52QVYYJSjSqPZWmV2o7Gx2MiRZF+gf6ZpyLanuUJjY7YEi4q1HRSQkRlV8LLdiMEjCBKiTBAtoHsyxc3mSXlccuEgQixy4/byurZR2tqD6a/2DW6elcD/O9Y1RJit0WTvWsYxFmzxuMItVvIq6dWSyiS2qy6kWKJyMdICLHano1hZwkxpAVeMQB08SQFXxEtrdOEgSB1V01iMALZmiclCW7BCp71UpE+jxWxuCGYhdhk5GmgWdK7C04JiEyLNSUyXsMbIQ5jlvuwGp2TS5IMnLaB7slzYfcwOngIwOXnZpWeYHYT2Bvf1s2yeVnIlO4mKgwWT61+LXCVFu1zY7Izs7EqE23A5gCX9sH5H8UZVmoZKw5pvlKjIIBbUxITcUGm1mhnZMTlyVw5r466QYgirLRpACx3910ytXkel0bw4boYGNzKGhQH7WlZSDmemizQMS+hmC9rhWcxxDzbM9pZnBxtm/414lqyPQKazMO0F5RR4ElpSrGyLkT08a+AZCw2qjidVSQUYVtkbKC3LIhMzuiqNK4k0gtkw6Ac4OFdFQpIRyxqSLMLShDSdrWMV0SpxwTodm2IbdYakDAwCktKkApeFmIJojGG3w7P0oORZs/3Fr/rODn8MXp5FE3U/DWp5FosjaA1QrBpUGNmLtQIpguTyoMkSu2I1cEzT8jRigwYreLiCRLFoghj/sGKIOAz22tBbYQExqUEMLZaOWYe5uU7gDwZyNl1jjaexCGkW1meijGHikPE6sSYkB2vmGf+6Gr69/yI8a9dLefYJz/ZzDbTadYkpA8XSuepdtTzMI3A0AgSHlWIJWjhAvgAAHudJREFUGhjIEDWAVKsBanVaVxVWUYCrIma0QMXEQw/rgGB1ZxYLgT2gwmKG1mS1EJIsZv4s0SHcB4RdLDS2i6VXpWE95+xKIDykUoLoCQKBjputzzKGmeVf5iJmDAbZYMTgk2f/I3l28NnP3pdnGbz084eFhKZzMkz7OGkmKWuf0ZhEhxh5+qSzWNs7ZDyneNW1tF10QRLcx9uax7Vg1nLQeNQzPGEB/Wyv9Ab9zDJ9vd2/ld6gn/FKbmdB7cuGPCsJyxCyJdQMo7Fyy89S/a6iTLF4V5FG8kljYzaQbMgy6tp46zZjdjDqDf4jeXYQ288+AshyLBCvTspxxZQXT+KaVASJoWhXmBTegJB9NSwshqelsLyCVkPi2NxP93l28MkGT3i2ryzfH9e3yrP3MdOPGxYIZ6GRcCQQcik2ZiK0WcbT7EwAFKblWE6UIosy6g0qiMTtYHYQyrP/Fph16aHe4D9Nnm3FPyIkInJS9kYsMtq6s92t+zw7uORZuyd6gw5JEv6RCSR0A+zGiFVQh+c9dEAUeUfe45mjR8yzraAkoT41EleshgsDr07TE3n2oabtzx0v95RnuyPPiixH2MF41N7OvmdxapXw71T2NEpN7KPVG7SCk7iMM0uQdwVZxhKcGnzzYE/0Bh2/OfYipYUb1gaxsIPzW0/83yZZ6OR3Iju+cbtHBoxnydLPPAnmI5pNvlrR/OBWi2wwCOXZ/0i9QTfkWXjL2UWCMoFaxPzsgWwgh6UmLNF7lgaMZ4kfOYUgnjB5fBCkD/xuwewg088+kWc7RpZa7Zbl5gYPY8sRajePngQEF6nlwHvP0oDxrBi2CDwJbLxh0tB5GsTy7H+k3qAb8qw6R2gyfrPCAzGesmPcehD6R52RlOTm0TPI2g0cz3YOVPNRBEl1RcwE2M+a5VlXpaVyRbaJhlfvj3GxCHeFIESRInt7eZhafUdkEWuvtLC0S5Wr7WI1cg+1W2RkgrBgtb06rPnNdVvA5ZoKaOHV1NhIdWrsHWVknNxuxNmzdqlKV6XIw9JihNxSKY9UR6bKExI+2fJhKm2SI0CQEinMwk4UZhGZCq9ZV1EzcXRnHozo7NhiMhXdsY2MWwK8mAvoxkvKSPtYETx6sYKRPDLW1U5umTrJLTbSVaS2i0y1VBuUcUqyJlecRarcPlU+Sa5UWsrl1nGXY9WpdiKYkluOiI2bFCNPvcrNVttZyu1FI+yVYcoRd5T2bmHKjoIcd2seDOu/q0i4XIO4C/tZS48atfoG14TlaE0F3EhXS5qeZKcEdVpicSSlUhSpRpSySDela+RlrgvKqbTGT6WHXaQoUpQqV8JWjhbZWbulquWxNSK5m8hVHWuX+mECXIQ7Tu3ybGuOuwO0Ts7pqa+4gY2IHy2YHWFpJ49VJ8RwsdAplytMiE3wQB1YiNSRojg5YuPB90YuV4ZFKkWkkRE0Q+kRqRSa1skjlc1SvXw8szYrl+umjou1trtTg1aN/BNdqbaIQ9va3RHJXeGKqoyNRezDHHpdwh2aBiiUaju1hVKuViKogXyE+o5c7mauvwV01/Is8XLD6rAGA6tjzMrDSLa4pkYPyIEWFq4iLHplkaBWRlqqrUVwkFfKw2pQKoNcJI+0d1NHqkUWd/COxokQH9Iybl9MUkKs3NLSQ473y/JgsdAyckFjTKQ8LjUMoiSiNNkBvCK7WJFb+0qkbukNSNArCHFiuOh2bj9rXSOy30fTjQdWZxgbabsEYBYx1uDnT8CK8sXGhrlZ11haqN0KuC6ZSlFCgjK2Ru6htIwT2VtGTkp9bvyC2DtqjN/s3ezlbnI1/sLgX5/amYzbLs8ixyQ6F3LcCR67c6inmJVi/UeyvHMLz8aC8Lg0FlGL5HLlbrEJYTUia/AgVrCETgUSvzJ2krUbwGuvBGqtRQki9Xf010q5R3Nvk7CAq/YIS02ihbiDCGv41YTJlULuWQ87udpDjncbrWtPaE0ucqFXPecGIjaoRa4auWWNhVwNjCjtre08xB8yFdg9vQEi6BBjTES96BCzlhbraKEy0uPHxmuWJISDNd4YOOAoU8G3iIWQECeKTYgF+SBokpvbHetUa02qCFmzrnGLU46o0SZxk2LlkehwXIFQi7P0zx5qe0u1RaTIOrImTq4RhVmnpqYiDqIytv3xeLd4loXweFhinqQu4huA1Gk6yc0t1jXB9M3VWIJZt4ycsyIP+Y85C1CZz8UkJZ1VW1qc5ZounY0U1Sh3Jf1e7SFS5lx9Tp2dFPvcgqsa9dmzH175fdIn6hqlnfqtpJgrCWcXoF46TO3ybGuOuwPMTs7pKWaxvJ6OOIUSzBJ7A7koVsml0W/Gnj2rVhcnHS0Wfnc20l7temnhzzFqO7TV5W+En1iTpqr8p7BYrfYQ0usuG5M2mmMK2C+gIeErN5ro00rrtz4R/rxabZ9Ec4WfTPJQ/yyMuWHvYa/eZ/wmZqOrMqaRm5SRkJSUqnSr+cT4c45II0+4vCvh8s9JRZF2sd3nWRICyoB4+iSIYrNvzUN1H+tC0x6ihLCjP6rlbpcWCrPxeripc74RLitKsk9NilGf/WahWr7LGPOjndI+LeabGDd0tkkxkgVC4TK3rG9oYYyl/dfFP/8z6eU7sUZuQciWl2OKRfKEg8U/C3M+VKZuSSo+kPTNLryPDz2Z7OgWz8KvPxX2e4iS15X9LF4cuiDNTT6pJmyfMmGSHeHZGFqYqgxbQAstU+0KGgu43EupciNtaqRd7bZkY5WZmElK5TeNV2MaTW7XTHSNtbBxtamgoOBS6gjRn4QQ5j5p/FndCWjb5VkmEgGT407w2J1DPcUszMBiitrwrEipFgkhGwh/bxmrdIuhG7OTUAFud2LohcVGk3UsAodchpfZW5Z3uNzLv+cKRfYLuQWXirmMHxbEhQW0ZaxbAi5MEq2jC85eBlZggy7cJYqhv7u0kL6mnnStMeaSqfEs2JcrXDCJblS6beRyk5IKuMvc1ELa9NfiApM6rjnOQnfkWWhH2DU0d+GKjnnWLsGehvgXc/VDkagmmzZ+YqQvWctBVmfRurHKAi6dFEPTBb//hGuSGz7hLrwkbIxRR+KKy0ko3DpSHalyLnfBJZNpmfob2vTd1wtMSdbyC7hDTAH3YOpqLjf7LH5AMmwvdY9n8eqhjiU6aRc8mwBhhkuniizcPCC1YnwAzE6K4RqVyoQFtDEyVciNVP74T2TmLOT3s6JI7qprGGXQHkojTZsWJImu0lwLJaSK1QA6fdYuoaDxk7dOG2khhL0OU/s8i2VCzTnuDjA7OacTzCImB1tHJhraJgqiK1CrYUvM9rNxkM9Wf0cXcE3/LEqwS6ILlOrfFxiVRxuNcuXqgoS477hXsafx0oijBd+oI/9pOjDiG25SggfNXZdg52aZAJ61tlPaxcVwv0ndxb0cCax8eOcbekGC3AQCXv3Nd7FxQlNq3CcFMQlbTJBnw2j6TkI2Fz2dkPv7O0ohnZTgRhesS2gmLPiDPZTjtrk3b0ulH4BKuAsPsjUSU7v1HmnxSYEJAu3lWHkGV7jsztf0P2PtMPxLOFrAtUul6U8slwm5wjtukK6VjaYfLWtMJmUkzU2ztDSakkTZdEycaLjQqE4lsvsCkzAV6EiytotByeXId+Q6mhvrVgySa/fhdi9v0WI90C6SzmAQ0ybTwmIs8FbZWVzEO0rXWJqOw1AykgwCI0cwPFtgRJils/R3SuXPXPWkyAsr1KLYAu4WN7stBVx1nBuXq7YHdxQpJyUsMNEiCyEtTBDtM9Gf2H1Nc++4qa/Qws7inyL+rB2XhhcN3A7vJ+SY25xjAzq5TkDZxaFOMCveuIqMRB5MBLT4H0P0BvjzQCg/a7cVWPuGuwyr78WoY12FjVeF9K6rV69yF7gV0GfHg2+MFsKCqxbKBMswCyH3uQTRN/TXDGZTr9L2IhBtEp20Gm/xggVG7hXA8arSkuZevbpAyF1w1STE2A1qg69Npi1uk7i0nZpLJ4giUbfr7L8xfZ0qgrDR7P+bsIsG0rpIoEMQIf6DLulr6CfbScowjzjRjzE/cz+JFRZcPrsgx0R7LOAKlbH2u2iCWXnkiCT6klxOmyJd6YVnr16lTW4gVpGd8qopSZnUmERGmV9fFpoavxad5QrlogWmmDsLGoWxyhEuBQXrvuYKw9QraGH7okHCeFK/XaWCAtAgaJ9LF6yKMWW0U4jmXXILNyWXuyISgr9bQtwdZgw2Cb1YgtyNyAaxl1ARjT8vw9CDa1pnLwLFxqAX4f6o/Ib+zlruNgl6gxHWQlMITjCaQhIuQfcgt440fdcZZsGzdqQQvyoHcmwy55he+FfWQ8tzdAHUNoc7wSzlkh3ycGpEY6M+uZfwbkOeJUuvu6KXVseauAsiSRcfp06igVm6sdFE71Kbs22i44T0WWWqvejDyG+4qxNEwoJ1GI9ZJiiBWejGUn8uiMELTNqp4KjoG+4CD4CTgdVlQCVMHqu0S32ukX7OQw7FixrgwMjvZ+46kbDx61g5gBtnbv3Y3zc+nOH29kBkRmPT9KoLBe02tr1bKiLFq7dwjW5C4IK8CLFXuUlxcW6XGMzaR1pm01dJjFXIiqRtINLbI1tyiwWNSQkxjUlqN2hT0EYYb47nGhnMiq5yY2LtRZbfmVZjhGcNwvrOov2QJldj2qv4B8uBc0x4Nh69axf9cscIguomDBCUi6zVcRkrIicR2cAuySSMk6de4grdYt2EpDKEGfI4E/2cSJ6EsppMJjrHTohuQRlpDW2kyF7IvQQZw0jH2MWY6DB5XCQtlHcS94rwLKyyH8hydghBDpPjG4IeBHdqA1dmsxPM6uExaWAGpq0fHApN2FjsotFpzPpZpcj6LS6tTk2dJCxYIML4P9b+Q6FpX5LpElRQrpFKLj3JUp6qTA1Lon9vF/f7ywdQRV/L5eDGBKh6EiZdBW8m1FyijR+iXn6UJ3yoTrCP4UI2AJmJ1G9Ze6wuEIo83hJeG+6GcYAS93O15Ba4yO0QecHe/hvcZtJ39HPQATNpgYmsVtR5ErAoaiZguOoTDUZh7fOsutgknGTn5sEVpsYUXAJpJowQbTGZRG7LhAxm4yJjk+gFI+Q0VxlrivGQ31FDM0dDaLS7aopRXoLEIj/KjYmb9F3jc3bPcY0J8vEFMW6Qc7d4yF9uFMatMwnVynVcY/vzS9YvZ0Eo67wQWAwW7v4mbuOu0xrXsPGNpzsO0aDE+2yijW8lKJWxXPqSiGA2IclkfAu9W4EQWixoK69CDrdQQmBTWyygMTyA6tjC8mdukoe9fBKIV5QgpK8miCyMdJIdpKME6MShV2n3bTfvJPIsF5HkELsQ7rbNic1h4yUmOZaoxET31NvUCWZViAbeJhii+QmsSy4qlkGll0JvQHjWwgKCHkRroZBLx6GLN2Wjr7mUkPBzY8zVmIIEO+hfP4FsmKHGW5yUxP2nvdpI4Gqkv2Z4FvJsAfom6MliLZ4zmRZcgvCfkMT95rIaYu9ZKI0SPHK4Qrz7ZxOsIVNdBW97WGZgDIbe661YiAVfx+Je65RmzIrO0i0+8J3VB0UpP3HVUgaNRKprH7Po6DEQRGfxYwKEg6QFkEQtPTCy+gZSLpEN4iwjgVkLUQEt97jMNS64XADCorlxkZZXwbPoTWMiM0zcr8/S9MvK1Y3c7NUYgynVyHdMNpd+K/XrRmOC6LlGyAbtSrREb/BQxT9YIBbcrU8b2CypTgP/05ebFdTt4Mj6jl3CW0YTffksRqxgFzSXnd1RkykmYV8j5K4fSYbcfl+AgRZNFz9nMYmmx8sPFBTEjhCaYkQiN4ZnUfcL3MC2dExCAk1/cwlkK+z4LbGD6pnwLAdr0rfJNrQcu04bEIII/odYYrH3qRPMtntTrLuICaRW/SymUibdQI2gU48hmP0G3E+r1WoX0gd8p46UFxc0NtLFbhjjo6/kPqcWGU2rEyyEpivQw1vaYaKATNAUXMZ8OMZfEDGz3UTjgXz1OnRZNL1arlaTvop2i7SGTuESOuBIMruAU4UeaugNXGIngbPV5goEWro3d2te46RjXZfaLptkixa6qRH1BN3vdy4WFr/HxNgnSbQoljaJYuUx9NlYNxpzIVBM44QbroA5tPGYPEj4EZWhhgRD05dNlzzwktJXxjeS9idF4hpd5eBZEfTNwg5C9HVLb0Bax8xVLDKn0A5Ym3eRSKXyLcgSqh+Zs48tAGYxhCwQcjHy9XD7xPSd0FjQeJkoRlAyDLdoIg/ZWeJllUOpc7aAloBBziKu2TemJLuEn4no8F0v9AatOW4XWd3f2VPMMnduxizRz0LFqPRIsMY0pFyiFIGPoKnE5FRqgpudCDo+JCjecQSQxH77SOUkuZsHFNMiub21hUWCHfqgSJGbSCJSu8qVFnIL+4RYTKSJajxwocjOTY5pGWtXESZrU13DlJhBtIuziHSblDDC0l4t9xght3dT2mMWDGahTOrOPFhr3XSMWbuwBHvXGg/7BEg1qZMwZ4UieXz9FoYtSSa5SGRtkaq0s7cLs6uRkGKpMdFAIoK6QgSytoMiF1m3T/CoGYHSx8bK7TFBmqBMxV43N0wOWocpNXK5q9JVjrneDnm2NZddbnWhn7VA29iP8LiSFJOUY6eOjUsYn4NBb0JxzO9Xf5hzFs3wVkx20jW1K6aic5KSPBLsRZeTkkQebsqzOUXQLdj/eDYHU9k5F9R2CWfPZsSKrGOvnlWqTf+M68SotgP9bJdF6d4JfcEsiSNjb2GHWVRRZE1kAiYHkugYZVxkpAgWmiLrVLmHRYK1Mhbq9gQYIKgjoSi8YykfAY2uvWUqgayFHXYC2bGpAHpCgkVYHAZbwAQUM6JID7k9II3RKu6N6Ue50hp38khVYspxkrVdaqq9h9rSA8tpj7B3k7dMgnaXZ8110zFmRUrkOw6Qc4u8I1KG2U0SKV2XNQrvpIL9NXCCA0jDYF9g7RqJMHvKGjLPTIz8RNZ2sRi9WQKn+LsT6ZqpVNqrRXEW8gTMaaOQGEzaiyaNgK4UFWQBe4x26bHbPGsuRhf6WWAWswrWmHCNVdvhpU+ItU9Qu03CqBm/rV3l6gQPeYLco8bOAm9XrLV1bKwb5jFhAOaRoJanotITML2r9nBToxZgLDPz5XXKuLgEIth0nNrVz3YPkN04q0+Yhf0sEKYcAQYFI6IuYuhsEejG3n6GK5YWtIBoABMXu9QaANFN5EHed1eldSosCGDfMonE0FTfsZDHJqC6LNTw+Aizg+pbDu52tZS7qUmETbS9SOSB1VPDlKlKjV1caqzS2h4GAJYwZggjU+AwXACcW+qv3zDrZukqjwsLQxYtAc+a2JpUUCyjQVgXaRkbC4ktVRRrCbEN0JPDlF8E1rSGXQRwmeomskZ9uKJyiLFJLGay0XNAOQKjCwj/sBqahKKi7OSj3Wbv5jxYS+t2YW/APMdihMgjARQJ6wkl7DdcPZSpCQnqOHVcqlxkNyIVWZHbeyhd3eSwoJBbj8BLKI+zi4ydAbOR2El4LS3tUQ+WqSPsRalc+puYGCG9rxfzYC057uN3nzAL/SzwBz213CC3JNOXB64elacCk3dGgHsRut7OwlLkATMvC1gOW9aoa+RKOeAbiS4HISuJAbKdfY39JNi4WIB/gMNItxFAuRxmGAY7S3tibgwIY+oG5IyVaXBLpdwVNklgYRxC4yth75WKunRt7qf6C7MIVx8JFIpcrUlG5R6RiMJvrT6dFHP5aCpMXMIgvaBXl1tY4I20c7VUq+3ldq4WMJXCuyhyC4uchJcO7y5KD1QTgVLpYWFN6gBKFFGYEoRGQAJ7tPYx26/xuohjDBFtajB8sBBJPsAjQTV3IlGfSnkNrGSUd6CcRUeI+pa7Yk3LyDh0fnI7rAwZZ4GixcUpsQ/WFpEj5HHgHijiybgjIaHdvJt3Dl6evR/fwNISpMLkVjQpwQyfXwtqzb9GPGy3CS8lO8SjaVN+cM+IX0fXhAhy/4SHmOlXWsJ+k2dJfn51Z/xOgDz6cAHa5PzXF+CFRq5bMt7y3eb0Djd7zLPdsJ994GFMVkm9MhsjzLVKPtuWwRIv5giUoLXOUYpJkyzkWw7W3Om0Jga3PPtAXTzWn92z62rtmDqWZx9rMRAzuWexPLuw6+rfwgC2GEDgdezsLRy8PPskXlf/wqHlbj3m2W74g7Xcu8/fZO11okfp9EaDmWc7fdk6LdWjOdhf8uyjyV137zqoeRaAhYhOFDqdFGfw8ux9ebaT3A/soX8TzD6K+Ab91RBQdkCpB8R2JhsMZp5tHRv1V5X07T7/JpgdzPIs0dLB27xTyMIhpWVd8dbRQ/9t9UnX1aIt6BvQ+vHqftUb9GO+enarQS3Pdqsog5lnO3/bulW8fjzpid6gHyuzT7cavDw7GOXZrv1uW/uoQavrGszybLewPJh59ok8260m7OFJg1tv0J3CDF6eHYz62e7ZIpq59t+GZwdSP9sdyA6yODJMa9+3nx1c8uyTeF3dAtQAnDR4efaJPPtomr/HeoOe2xs8mozfv+sTefZ+VXSx8URv0EUFDdjhwcuzg1Ge/Y/UGzyRZ1uVQR1tPZFnHyljPdEbdAQ88/5ezYORYJiII+Nmbdmxu+cjbdUObo4AVJSu8/K2PSomUcdgBw2b6A5uOOC7Ebx0hEXGOhUFJ+vupi78wQa8DHjgIJRn4bTOYSFKA8ztH0eNdPTMBI9dC7tcc6cNEsRaDcvIGNYNmmLAoUMkX6B01bbJZlebXfiDdVRbj3L/IJRnmQCiCy8nuIUNLp51i4kxdBVXvw0CpBSPk+TBuJ48ygbsyb2xFpKF6PeuLGaJgDZZ7WyzC3+wnjy+v84dhDwrZWPVhWITwqZ0HHKnv4rfg/tMUtJp7B4Ee9AglO7GCyTycrM7WQ+e9YhOFY2wE81o1GtHtA1m0RlgcewJz3ZRQcxhNgkGsaURIQjkj6jtendbC66yJwFKDFoOVfOJGi7cqb17Xv9fJY+0UB7g6kkk9W6nJ/Jst6tKemlfQhg8vq17snJP/7dy8x0TLO/ILTKKehT3nIeAmfaNaSNcYwdNd2Ed66amizliRCHvdnrCs92uKm2s0Q1rChCn50eGxO7fuGYSAsqsQuC1buefwxEbxCzWwlVYIwAe34MjRcaqJzVmhUnFPSjHE3m2220udV24Sj4JAQgGw6DbEvGUlI0xuoeD4nVSHh5HKxaLk/ZNqlEPDsRilc7UGQvlbZfD7iT7LYee8GxLTXT5raFcGhHbtEsfzIGBg6XSftmqD3gcVg/0BlhKHauhKVetsLwzMJns+imRCMXDRqZYXa7f2to+T+TZ1rroYktHqQyNRjc3xCDpui0e+RluFqu4FDDYA8hy2FIxh83SnaafC3vk+evmA1YYL+kQAZPiPZFnO4ZfL+fBcEMJW8o6sGqjenBoitwqV63j6CSanuhnMdIR8zIpymXV0cGi7Fq1SgOSxaI6PVAcPJFnO4b3g0ekFJuju2a6/DLGYVjGl0TSeSwpEktthTTmaMJ6MG5pWxYs/5NGh3yINRYfZ0KExQs0VySBzqBt5rqxLeZV0ge6yeMDdVqqq5I2GXpigN+Ngrac0nueNWdII2/EIhk/Pvc404JsutFO2jO5oKX8+KY4Gs21xsbso4+zDM9lXG2kd61AT8HparXhNllnNsUk9tGgkciZt8Iewc24tFjT4/fvwbK1+7v3mJVyNBxKyhJIdK4eV1xcVuPv8fxzyULYcfJO95SgzC2u0UoNbA1Pq816PNk3V5vLFQHHoGWxe9POggPcqwNFoN17DmI/YhWBMIrXqyZpF6htdvYes2TdWC0lkWL9UilPI5Y+thSnVwl05JXuyfjrfhWQRRk5GqkAqH1sJcCDKSmPErClKIK4y6UU7ufdvCHmHCy43DaeYfdw9SjPirSzXlYQgyVWejCT/kCpOvnZB8xSGHZTFAegJalXgOkkY90/pNGIJVKyAHAPxi1t7g5+1nB4LCzP3WbnwG9KKA7WECQvXk/bma1xKzA+SgT2/N5qi9TVpl0YTfa0LN2q995jtlu3f3LSo68BPVtfUOAmt5ZHDhqzCcyNLKRnYDg5yGSDR98YT57QrRqQilV0gZs6Na6DZXB6TpN9vSIhIew0nYR+Q9oDNXO3ysqc9IRnu19Xg/RMsYC1kbtK7jaixqOvYOuv65UeWGAMMvqjqbEnmH009TqAd4UfTmZMYzGWReovyPX1PpaGZVwutPdYKvJR1MMTzD6KWh3Qe2pdKYmYbnRRY+HwvqKtn66/VLBqBaafWT3WgXSr4p5gtlvVNOhP2sVdtS9BlGqB5VQSHlPCwkPkT+mGVbTpK5JHMvxi2uEJZgc9HLuVQakFFtNd7epxp9OY8f1Eox3cRg4vpRGR8oRVBQVFBihCH1V6gtlHVbMDe1+p4K9Yh/Y5NxEWVn1MCdYaanmC24FVNJ2lkWoeicqAqdQnmB1YbD2yp2m1nGursFY2WS77MSUu3Yjnc+mNYoOBJXhkJeU8weyjq9uBvLNBDDO7D2KwcDnWc388iTybbuQWX2DBB58yPDqe/f91RO4mQT4ebQAAAABJRU5ErkJggg==;clipPath=inset(0% 0% 0% 0%);" parent="1" vertex="1">
          <mxGeometry x="100" y="350" width="691" height="230.33333333333334" as="geometry" />
        </mxCell>
      </root>
    </mxGraphModel>
  </diagram>
</mxfile>
